<svg width="1096" height="722" viewBox="0 0 1096 722" fill="none" xmlns="http://www.w3.org/2000/svg">
<path d="M648.854 477.988C863.844 400.968 1019.36 286.149 996.213 221.532C973.064 156.916 780.015 166.971 565.025 243.99C350.035 321.01 194.517 435.829 217.666 500.446C240.815 565.062 433.864 555.008 648.854 477.988Z" stroke="#ee710b" stroke-opacity="0.5" stroke-width="0.5" stroke-miterlimit="10" stroke-linecap="round" stroke-dasharray="12 12"/>
<path d="M665.94 525.68C968.558 417.267 1187.46 255.647 1154.88 164.691C1122.29 73.7346 850.558 87.8859 547.939 196.299C245.321 304.711 26.4153 466.332 59.0002 557.288C91.5851 648.244 363.321 634.092 665.94 525.68Z" stroke="#ee710b" stroke-opacity="0.5" stroke-width="0.5" stroke-miterlimit="10"/>
<path d="M634.784 438.712C777.587 387.553 880.885 311.283 865.508 268.357C850.13 225.432 721.899 232.107 579.095 283.266C436.292 334.425 332.993 410.696 348.371 453.621C363.749 496.546 491.98 489.871 634.784 438.712Z" stroke="#ee710b" stroke-opacity="0.5" stroke-width="0.5" stroke-miterlimit="10"/>
<mask id="mask0_75_1425" style="mask-type:luminance" maskUnits="userSpaceOnUse" x="515" y="274" width="179" height="179">
<path d="M689.695 338.229C690.893 342.405 691.822 346.654 692.475 350.949C693.077 355.591 693.374 360.268 693.365 364.949C693.033 382.884 687.277 400.299 676.855 414.899C674.436 418.345 671.762 421.604 668.855 424.649C666.103 427.56 663.149 430.273 660.015 432.769C654 437.555 647.396 441.551 640.365 444.659C633.895 447.279 632.545 447.819 629.555 448.599C627.905 449.039 625.725 449.709 624.045 450.039C620.755 450.669 616.345 451.469 613.045 451.809C605.167 452.569 597.222 452.263 589.425 450.899C585.224 450.171 581.081 449.145 577.025 447.829C572.648 446.396 568.386 444.635 564.275 442.559C562.595 441.669 560.355 440.489 558.735 439.489C556.525 438.119 553.595 436.229 551.525 434.659C547.169 431.405 543.113 427.767 539.405 423.789C538.005 422.269 536.175 420.209 534.935 418.569C533.015 416.029 530.575 412.569 528.875 409.879C526.447 405.742 524.279 401.457 522.385 397.049C521.965 396.049 521.595 394.949 521.265 393.869C512.665 364.869 543.055 327.699 588.995 310.929C543.055 327.699 512.665 364.929 521.265 393.869C521.595 394.949 521.965 396.009 522.385 397.049C521.125 393.869 519.225 388.239 518.815 386.469C518.335 384.359 517.575 381.579 517.225 379.469C516.705 376.319 516.225 372.089 515.925 368.919C515.66 365.618 515.64 362.303 515.865 358.999C516.188 354.456 516.749 349.933 517.545 345.449C518.094 342.55 518.836 339.69 519.765 336.889C520.415 335.039 521.215 332.549 521.955 330.739C522.855 328.519 524.115 325.589 525.225 323.479C527.244 319.447 529.585 315.584 532.225 311.929C534.657 308.493 537.33 305.235 540.225 302.179C542.971 299.261 545.929 296.551 549.075 294.069C552.095 291.656 555.269 289.442 558.575 287.439C561.831 285.449 565.223 283.692 568.725 282.179C570.325 281.529 572.435 280.569 574.075 280.029C581.075 277.719 581.645 277.529 585.075 276.799C588.505 276.069 592.775 275.449 596.075 275.029C597.775 274.809 600.075 274.769 601.795 274.659C605.67 274.545 609.548 274.682 613.405 275.069C617.449 275.467 621.459 276.152 625.405 277.119C629.632 278.133 633.774 279.47 637.795 281.119C649.93 285.998 660.829 293.513 669.705 303.119C671.085 304.639 672.925 306.689 674.175 308.339C676.364 311.114 678.388 314.016 680.235 317.029C682.365 320.779 684.965 325.919 686.715 329.859C687.853 332.595 688.848 335.389 689.695 338.229Z" fill="white"/>
</mask>
<g mask="url(#mask0_75_1425)">
<path d="M593.235 435.379C560.515 435.379 531.555 420.059 520.905 393.999C512.245 364.839 542.715 327.449 588.855 310.609L589.165 310.499L589.285 310.799C603.885 346.549 622.765 399.189 631.365 428.159L631.455 428.469L631.155 428.569C619.011 433.039 606.176 435.344 593.235 435.379ZM588.755 311.379C543.145 328.149 513.015 365.069 521.545 393.789C536.025 429.259 584.905 444.609 630.545 428.069C621.985 399.119 603.275 346.959 588.755 311.359V311.379Z" stroke="#ee710b" stroke-width="0.1" stroke-miterlimit="10"/>
<path d="M585.375 354.549C568.815 354.549 554.135 346.789 548.745 333.549L549.365 333.289C556.665 351.149 581.305 358.839 604.305 350.449L604.545 351.079C598.407 353.348 591.919 354.523 585.375 354.549Z" stroke="#ee710b" stroke-width="0.1" stroke-miterlimit="10"/>
<path d="M586.915 399.099C558.655 399.099 533.625 385.869 524.435 363.349L525.055 363.089C537.595 393.779 579.915 407.009 619.405 392.589L619.635 393.229C609.154 397.079 598.081 399.065 586.915 399.099Z" stroke="#ee710b" stroke-width="0.1" stroke-miterlimit="10"/>
<path d="M545.625 422.529C536.995 393.469 556.325 343.299 588.705 310.689L589.185 311.169C556.955 343.619 537.705 393.449 546.275 422.329L545.625 422.529Z" stroke="#ee710b" stroke-width="0.1" stroke-miterlimit="10"/>
<path d="M585.015 434.859C576.405 405.859 578.015 350.219 588.615 310.859L589.265 311.039C578.695 350.319 577.085 405.789 585.665 434.689L585.015 434.859Z" stroke="#ee710b" stroke-width="0.1" stroke-miterlimit="10"/>
<path d="M630.785 428.699L630.685 428.349C622.085 399.399 603.225 346.779 588.635 311.059L588.495 310.729L588.825 310.609C617.995 299.949 647.395 299.609 667.465 309.709C678.095 315.059 685.265 323.079 688.185 332.909C694.185 347.689 693.695 363.909 686.675 379.799C677.125 401.399 656.875 419.169 631.125 428.569L630.785 428.699ZM589.385 311.129C603.905 346.719 622.605 398.869 631.235 427.819C656.645 418.439 676.625 400.819 686.055 379.529C693.005 363.819 693.525 347.769 687.545 333.139C684.665 323.459 677.625 315.579 667.155 310.319C647.335 300.349 618.285 300.649 589.385 311.129Z" stroke="#ee710b" stroke-width="0.1" stroke-miterlimit="10"/>
<path d="M604.545 351.109L604.305 350.479C617.165 345.779 627.305 336.919 632.035 326.149C635.515 318.269 635.775 310.229 632.775 302.889L633.405 302.629C636.475 310.139 636.215 318.369 632.645 326.429C627.855 337.359 617.575 346.349 604.545 351.109Z" stroke="#ee710b" stroke-width="0.1" stroke-miterlimit="10"/>
<path d="M619.635 393.229L619.405 392.589C641.475 384.529 658.825 369.309 666.995 350.829C672.995 337.269 673.445 323.439 668.285 310.829L668.905 310.579C674.135 323.379 673.685 337.399 667.615 351.119C659.365 369.749 641.855 385.099 619.635 393.229Z" stroke="#ee710b" stroke-width="0.1" stroke-miterlimit="10"/>
<path d="M669.125 404.149C660.545 375.259 624.495 333.569 588.765 311.209L589.125 310.639C624.975 333.069 661.125 374.929 669.775 403.949L669.125 404.149Z" stroke="#ee710b" stroke-width="0.1" stroke-miterlimit="10"/>
<path d="M689.515 369.979C680.955 341.149 635.825 314.809 588.915 311.259L588.965 310.589C636.135 314.149 681.535 340.709 690.165 369.779L689.515 369.979Z" stroke="#ee710b" stroke-width="0.1" stroke-miterlimit="10"/>
<path d="M687.545 333.139C685.438 327.992 682.584 323.184 679.075 318.869C675.604 315.377 671.576 312.487 667.155 310.319C647.255 300.319 618.055 300.649 589.055 311.249L588.755 311.359L588.635 311.059C586.385 305.559 584.485 301.059 582.865 297.339C581.305 297.839 579.745 298.372 578.185 298.939L577.845 299.059L577.745 298.719C572.285 280.339 573.425 279.939 573.975 279.719C574.525 279.499 575.675 279.149 583.245 296.489C620.975 284.759 659.955 294.219 679.565 318.369C683.577 322.432 686.536 327.413 688.185 332.879L687.545 333.139ZM632.755 302.379C645.755 302.379 657.755 304.819 667.465 309.709C670.192 311.071 672.783 312.689 675.205 314.539C654.825 293.809 618.655 286.249 583.515 297.139C585.105 300.779 586.965 305.189 589.135 310.499C603.099 305.3 617.856 302.553 632.755 302.379ZM574.215 280.379C574.015 280.839 573.945 283.469 578.285 298.149C579.725 297.629 581.165 297.149 582.605 296.689C576.375 282.449 574.625 280.629 574.215 280.449V280.379Z" stroke="#ee710b" stroke-width="0.1" stroke-miterlimit="10"/>
<path d="M632.775 302.889C625.485 285.029 600.855 277.329 577.855 285.739L577.625 285.099C600.965 276.569 625.995 284.439 633.425 302.629L632.775 302.889Z" stroke="#ee710b" stroke-width="0.1" stroke-miterlimit="10"/>
<path d="M668.285 310.809C655.745 280.129 613.435 266.889 573.935 281.319L573.705 280.679C613.545 266.129 656.245 279.539 668.915 310.559L668.285 310.809Z" stroke="#ee710b" stroke-width="0.1" stroke-miterlimit="10"/>
<path d="M589.185 311.169L588.705 310.689C608.535 290.689 629.605 281.119 645.015 284.999C654.015 287.259 660.355 293.949 663.445 304.349L662.795 304.549C659.795 294.379 653.575 287.849 644.855 285.659C629.635 281.819 608.855 291.369 589.185 311.169Z" stroke="#ee710b" stroke-width="0.1" stroke-miterlimit="10"/>
<path d="M589.265 311.019L588.615 310.839C594.795 287.889 602.835 274.659 610.685 274.559H610.775C616.075 274.559 620.665 280.559 624.055 292.019L623.405 292.209C620.105 281.099 615.745 275.209 610.775 275.209H610.695C603.285 275.329 595.275 288.709 589.265 311.019Z" stroke="#ee710b" stroke-width="0.1" stroke-miterlimit="10"/>
<path d="M520.905 393.999C514.905 379.189 515.375 362.999 522.405 347.069C531.915 325.569 552.045 307.849 577.655 298.409C572.295 280.339 573.425 279.939 573.975 279.749C574.525 279.559 576.265 278.989 589.255 310.749L589.385 311.079L589.055 311.199C543.285 327.909 512.995 364.929 521.545 393.719L520.905 393.999ZM574.215 280.449C574.005 280.919 573.945 283.579 578.395 298.569L578.485 298.869L578.185 298.979C552.605 308.319 532.495 325.979 523.025 347.389C516.845 361.389 515.745 375.579 519.775 388.849C515.855 360.679 545.245 326.679 588.495 310.769C577.395 283.569 574.735 280.679 574.215 280.449Z" stroke="#ee710b" stroke-width="0.1" stroke-miterlimit="10"/>
<path d="M548.745 333.579C545.675 326.069 545.935 317.839 549.505 309.779C554.335 298.859 564.575 289.859 577.605 285.099L577.835 285.739C564.985 290.429 554.835 299.299 550.115 310.059C546.635 317.939 546.375 325.989 549.365 333.319L548.745 333.579Z" stroke="#ee710b" stroke-width="0.1" stroke-miterlimit="10"/>
<path d="M524.435 363.349C519.205 350.549 519.655 336.529 525.725 322.809C533.975 304.159 551.465 288.809 573.725 280.679L573.955 281.319C551.885 289.379 534.535 304.599 526.365 323.079C520.365 336.629 519.925 350.469 525.075 363.079L524.435 363.349Z" stroke="#ee710b" stroke-width="0.1" stroke-miterlimit="10"/>
<path d="M539.305 322.929C535.995 311.769 537.085 303.719 542.455 299.639C550.665 293.379 568.115 297.499 589.125 310.639L588.765 311.209C568.005 298.209 550.845 294.099 542.865 300.209C537.735 304.109 536.725 311.909 539.955 322.769L539.305 322.929Z" stroke="#ee710b" stroke-width="0.1" stroke-miterlimit="10"/>
<path d="M518.905 357.099C515.905 346.939 517.655 337.419 523.995 329.559C535.365 315.469 559.635 308.369 588.995 310.559L588.945 311.229C559.865 309.039 535.775 316.029 524.555 329.949C518.355 337.629 516.635 346.949 519.555 356.869L518.905 357.099Z" stroke="#ee710b" stroke-width="0.1" stroke-miterlimit="10"/>
<path d="M634.915 447.169C634.285 447.169 632.565 445.799 625.825 430.359C588.085 442.089 549.095 432.619 529.495 408.459C525.486 404.402 522.533 399.423 520.895 393.959L521.535 393.739C523.638 398.878 526.486 403.679 529.985 407.989C533.454 411.491 537.487 414.384 541.915 416.549C561.825 426.549 591.015 426.219 620.015 415.629L620.325 415.519L620.445 415.819C622.695 421.319 624.595 425.819 626.205 429.539C627.772 429.039 629.335 428.506 630.895 427.939L631.235 427.819L631.335 428.159C636.785 446.529 635.645 446.929 635.105 447.159C635.043 447.174 634.979 447.177 634.915 447.169ZM626.475 430.169C632.695 444.409 634.475 446.259 634.865 446.469C635.065 446.009 635.135 443.379 630.785 428.709C629.355 429.219 627.915 429.699 626.475 430.159V430.169ZM533.855 412.319C554.235 433.059 590.425 440.629 625.565 429.739C623.985 426.099 622.125 421.689 619.955 416.379C590.885 426.929 561.625 427.219 541.625 417.159C538.889 415.794 536.287 414.173 533.855 412.319Z" stroke="#ee710b" stroke-width="0.1" stroke-miterlimit="10"/>
<path d="M602.645 452.059C574.385 452.059 549.355 438.829 540.165 416.309L540.785 416.059C553.325 446.749 595.645 459.979 635.135 445.559L635.365 446.189C624.886 450.044 613.811 452.03 602.645 452.059Z" stroke="#ee710b" stroke-width="0.1" stroke-miterlimit="10"/>
<path d="M571.185 442.719C568.783 442.73 566.388 442.445 564.055 441.869C555.055 439.609 548.725 432.919 545.625 422.529L546.275 422.329C549.275 432.489 555.505 439.019 564.275 441.219C579.455 445.039 600.275 435.509 619.945 415.709L620.425 416.189C603.455 433.229 585.635 442.719 571.185 442.719Z" stroke="#ee710b" stroke-width="0.1" stroke-miterlimit="10"/>
<path d="M598.295 452.309C592.995 452.309 588.415 446.309 585.015 434.859L585.665 434.669C588.965 445.769 593.335 451.669 598.295 451.669H598.375C605.795 451.579 613.805 438.209 619.805 415.899L620.465 416.079C614.285 439.079 606.235 452.249 598.385 452.349L598.295 452.309Z" stroke="#ee710b" stroke-width="0.1" stroke-miterlimit="10"/>
<path d="M634.915 447.169C634.135 447.169 631.645 445.029 619.815 416.079L619.685 415.749L620.015 415.629C665.795 398.919 696.085 361.889 687.535 333.109L688.165 332.879C694.215 347.689 693.695 363.879 686.675 379.799C677.155 401.309 657.035 419.029 631.425 428.469C636.775 446.539 635.645 446.929 635.105 447.129C635.045 447.154 634.981 447.167 634.915 447.169ZM620.575 416.169C631.685 443.329 634.335 446.169 634.865 446.479C635.065 446.019 635.135 443.349 630.685 428.369L630.595 428.069L630.895 427.959C656.475 418.619 676.575 400.959 686.055 379.549C692.235 365.549 693.325 351.359 689.295 338.089C693.225 366.239 663.855 400.239 620.575 416.149V416.169Z" stroke="#ee710b" stroke-width="0.1" stroke-miterlimit="10"/>
<path d="M635.365 446.189L635.135 445.559C657.205 437.499 674.555 422.279 682.725 403.789C688.725 390.239 689.175 376.399 684.015 363.789L684.635 363.529C689.865 376.329 689.415 390.349 683.345 404.079C675.095 422.719 657.615 438.069 635.365 446.189Z" stroke="#ee710b" stroke-width="0.1" stroke-miterlimit="10"/>
<path d="M656.575 430.099C647.325 430.099 634.495 425.329 619.955 416.239L620.315 415.659C641.065 428.659 658.225 432.779 666.215 426.659C671.335 422.759 672.345 414.959 669.125 404.109L669.775 403.909C673.085 415.059 671.995 423.109 666.615 427.199C664.085 429.159 660.685 430.099 656.575 430.099Z" stroke="#ee710b" stroke-width="0.1" stroke-miterlimit="10"/>
<path d="M630.485 416.689C627.115 416.689 623.645 416.559 620.105 416.289V415.609C649.205 417.809 673.275 410.809 684.505 396.889C690.695 389.209 692.415 379.889 689.505 369.979L690.155 369.779C693.155 379.929 691.415 389.449 685.065 397.309C675.085 409.709 655.095 416.689 630.485 416.689Z" stroke="#ee710b" stroke-width="0.1" stroke-miterlimit="10"/>
<path d="M619.945 416.379L619.815 416.079C605.215 380.319 586.345 327.669 577.745 298.719L577.655 298.409L577.955 298.299C624.055 281.459 673.505 296.979 688.165 332.879C696.855 362.039 666.355 399.449 620.245 416.269L619.945 416.379ZM578.485 298.829C587.085 327.749 605.795 379.909 620.325 415.519C665.925 398.749 696.055 361.839 687.535 333.119C673.035 297.629 624.165 282.289 578.485 298.829Z" stroke="#ee710b" stroke-width="0.1" stroke-miterlimit="10"/>
<path d="M684.015 363.779C671.475 333.089 629.165 319.859 589.665 334.279L589.435 333.649C629.275 319.099 671.975 332.509 684.645 363.519L684.015 363.779Z" stroke="#ee710b" stroke-width="0.1" stroke-miterlimit="10"/>
<path d="M620.375 416.189L619.895 415.709C652.115 383.259 671.365 333.389 662.795 304.549L663.445 304.349C672.075 333.449 652.755 383.579 620.375 416.189Z" stroke="#ee710b" stroke-width="0.1" stroke-miterlimit="10"/>
<path d="M620.465 416.039L619.805 415.859C630.375 376.579 631.995 321.109 623.405 292.209L624.055 292.019C632.675 321.019 631.055 376.659 620.465 416.039Z" stroke="#ee710b" stroke-width="0.1" stroke-miterlimit="10"/>
<path d="M576.325 424.499C563.325 424.499 551.325 422.059 541.615 417.159C530.975 411.809 523.815 403.789 520.895 393.959C514.895 379.189 515.375 362.959 522.405 347.069C531.955 325.489 552.195 307.709 577.955 298.299L578.285 298.179L578.395 298.529C586.985 327.449 605.855 380.079 620.445 415.819L620.575 416.149L620.245 416.269C606.193 421.536 591.332 424.321 576.325 424.499ZM577.855 299.059C552.435 308.439 532.465 326.059 523.035 347.349C516.085 363.059 515.565 379.109 521.545 393.739C524.415 403.409 531.465 411.289 541.925 416.549C561.755 426.549 590.805 426.229 619.695 415.749C605.165 380.139 586.465 327.999 577.855 299.059Z" stroke="#ee710b" stroke-width="0.1" stroke-miterlimit="10"/>
<path d="M540.165 416.309C534.935 403.519 535.385 389.499 541.455 375.769C549.705 357.119 567.195 341.769 589.455 333.649L589.685 334.279C567.615 342.339 550.265 357.559 542.095 376.039C536.095 389.599 535.655 403.439 540.805 416.039L540.165 416.309Z" stroke="#ee710b" stroke-width="0.1" stroke-miterlimit="10"/>
<path d="M619.955 416.239C584.105 393.809 547.955 351.949 539.305 322.929L539.955 322.729C548.535 351.619 584.575 393.309 620.315 415.659L619.955 416.239Z" stroke="#ee710b" stroke-width="0.1" stroke-miterlimit="10"/>
<path d="M620.105 416.289C572.945 412.729 527.545 386.169 518.905 357.099L519.555 356.899C528.125 385.739 573.245 412.069 620.155 415.609L620.105 416.289Z" stroke="#ee710b" stroke-width="0.1" stroke-miterlimit="10"/>
<path d="M604.685 452.559C599.533 452.573 594.39 452.131 589.315 451.239C585.095 450.499 580.932 449.466 576.855 448.149C572.463 446.716 568.187 444.947 564.065 442.859C562.195 441.859 560.065 440.749 558.495 439.779C557.135 438.929 553.705 436.779 551.255 434.929C546.881 431.663 542.811 428.009 539.095 424.009C537.755 422.559 535.895 420.479 534.605 418.769C532.605 416.139 530.175 412.639 528.525 410.059C526.163 406.04 524.052 401.879 522.205 397.599L522.015 397.189C521.855 396.809 521.705 396.409 521.555 396.009C520.325 392.769 518.785 388.139 518.425 386.569C518.275 385.919 518.105 385.209 517.925 384.479C517.505 382.769 517.075 381.009 516.825 379.479C516.285 376.199 515.825 371.869 515.525 368.909C515.263 365.582 515.243 362.239 515.465 358.909C515.812 354.395 516.393 349.903 517.205 345.449C517.755 342.53 518.507 339.654 519.455 336.839C519.625 336.349 519.805 335.839 519.985 335.269C520.505 333.739 521.095 332.009 521.645 330.669C522.335 328.959 523.645 325.739 524.925 323.379C526.944 319.338 529.285 315.465 531.925 311.799C534.376 308.346 537.073 305.074 539.995 302.009C542.76 299.083 545.731 296.36 548.885 293.859C551.915 291.434 555.102 289.213 558.425 287.209C561.696 285.212 565.1 283.445 568.615 281.919C569.125 281.719 569.695 281.479 570.275 281.229C571.545 280.689 572.855 280.139 573.985 279.769C580.985 277.449 581.575 277.259 584.985 276.519C588.585 275.749 593.465 275.079 596.045 274.749C597.235 274.599 598.675 274.529 600.045 274.469C600.645 274.469 601.235 274.419 601.765 274.379C605.657 274.264 609.552 274.401 613.425 274.789C617.492 275.193 621.525 275.881 625.495 276.849C629.732 277.862 633.884 279.199 637.915 280.849C650.077 285.728 661.005 293.241 669.915 302.849C671.455 304.549 673.195 306.499 674.405 308.089L674.465 308.179C676.634 310.938 678.638 313.823 680.465 316.819C682.605 320.589 685.225 325.759 686.965 329.679C688.109 332.439 689.11 335.256 689.965 338.119C691.168 342.312 692.103 346.577 692.765 350.889C693.361 355.552 693.655 360.248 693.645 364.949C693.531 373.464 692.159 381.915 689.575 390.029C688.138 394.663 686.308 399.166 684.105 403.489C678.344 414.938 670.178 425.008 660.165 433.009C654.121 437.821 647.483 441.838 640.415 444.959C633.945 447.579 632.595 448.129 629.565 448.959L627.915 449.419C626.585 449.789 625.205 450.169 624.035 450.419C619.365 451.319 615.645 451.919 612.975 452.189C610.22 452.453 607.453 452.576 604.685 452.559ZM522.685 396.919L522.875 397.319C524.703 401.573 526.797 405.708 529.145 409.699C530.785 412.269 533.215 415.749 535.145 418.359C536.425 420.049 538.275 422.119 539.595 423.559C543.292 427.521 547.335 431.145 551.675 434.389C554.105 436.219 557.505 438.389 558.865 439.199C560.415 440.199 562.525 441.279 564.385 442.259C572.258 446.259 580.685 449.06 589.385 450.569C597.153 451.921 605.067 452.223 612.915 451.469C615.565 451.199 619.265 450.609 623.915 449.709C625.055 449.489 626.415 449.099 627.725 448.709C628.315 448.539 628.885 448.379 629.395 448.249C632.395 447.469 633.725 446.919 640.165 444.309C647.165 441.22 653.739 437.244 659.725 432.479C666.133 427.354 671.797 421.364 676.555 414.679C681.952 407.084 686.129 398.693 688.935 389.809C691.479 381.753 692.827 373.367 692.935 364.919C692.946 360.238 692.652 355.562 692.055 350.919C691.404 346.644 690.479 342.415 689.285 338.259C688.545 335.909 687.435 332.359 686.345 329.899C684.605 325.989 682.005 320.849 679.865 317.089C678.035 314.121 676.031 311.262 673.865 308.529L673.805 308.439C672.615 306.869 670.885 304.929 669.355 303.239C660.532 293.733 649.717 286.292 637.685 281.449C633.687 279.802 629.568 278.465 625.365 277.449C621.418 276.499 617.408 275.831 613.365 275.449C609.528 275.062 605.67 274.925 601.815 275.039L600.075 275.129C598.695 275.189 597.265 275.249 596.075 275.399C593.495 275.729 588.645 276.399 585.075 277.159C581.695 277.899 581.125 278.079 574.135 280.389C573.035 280.749 571.735 281.299 570.475 281.829L568.815 282.529C565.335 284.03 561.966 285.778 558.735 287.759C555.428 289.748 552.257 291.956 549.245 294.369C546.112 296.847 543.164 299.551 540.425 302.459C537.527 305.497 534.853 308.743 532.425 312.169C529.814 315.807 527.493 319.646 525.485 323.649C524.255 326.009 522.915 329.209 522.225 330.899C521.685 332.229 521.105 333.949 520.585 335.459C520.405 336.019 520.215 336.549 520.045 337.039C519.116 339.825 518.377 342.672 517.835 345.559C517.028 350.006 516.454 354.492 516.115 358.999C515.891 362.286 515.908 365.585 516.165 368.869C516.445 371.819 516.925 376.129 517.465 379.389C517.705 380.859 518.135 382.599 518.545 384.289C518.735 385.029 518.905 385.749 519.055 386.399C519.205 387.049 519.415 387.739 519.735 388.739C519.503 387.062 519.386 385.372 519.385 383.679C519.385 356.549 547.955 325.519 588.785 310.609L589.015 311.249C548.455 326.059 520.015 356.809 520.015 383.649C520.004 387.075 520.492 390.484 521.465 393.769C521.665 394.439 521.885 395.109 522.125 395.769L522.565 396.919H522.685Z" stroke="#ee710b" stroke-width="0.1" stroke-miterlimit="10"/>
</g>
<path d="M522.385 397.049C524.279 401.457 526.447 405.742 528.875 409.879C530.575 412.569 533.015 416.029 534.935 418.569C536.175 420.209 538.005 422.269 539.405 423.789C543.113 427.767 547.169 431.405 551.525 434.659C553.595 436.229 556.525 438.119 558.735 439.489C560.355 440.489 562.595 441.669 564.275 442.559C568.386 444.635 572.648 446.396 577.025 447.829C581.081 449.145 585.224 450.171 589.425 450.899C597.222 452.263 605.167 452.569 613.045 451.809C616.345 451.469 620.755 450.669 624.045 450.039C625.725 449.709 627.905 449.039 629.555 448.599C632.545 447.819 633.895 447.279 640.365 444.659C647.396 441.551 654 437.555 660.015 432.769C663.149 430.273 666.103 427.56 668.855 424.649C671.762 421.604 674.436 418.345 676.855 414.899C687.277 400.299 693.033 382.884 693.365 364.949C693.374 360.268 693.077 355.591 692.475 350.949C691.822 346.654 690.893 342.405 689.695 338.229C688.848 335.389 687.853 332.595 686.715 329.859C684.965 325.919 682.365 320.779 680.235 317.029C678.388 314.016 676.364 311.114 674.175 308.339C672.925 306.689 671.085 304.639 669.705 303.119C660.829 293.513 649.93 285.998 637.795 281.119C633.774 279.47 629.632 278.133 625.405 277.119C621.459 276.152 617.449 275.467 613.405 275.069C609.548 274.682 605.67 274.545 601.795 274.659C600.075 274.769 597.775 274.809 596.075 275.029C592.775 275.449 588.505 276.069 585.075 276.799C581.645 277.529 581.075 277.719 574.075 280.029C572.435 280.569 570.325 281.529 568.725 282.179C565.223 283.692 561.831 285.449 558.575 287.439C555.269 289.442 552.095 291.656 549.075 294.069C545.929 296.551 542.971 299.261 540.225 302.179C537.33 305.235 534.657 308.493 532.225 311.929C529.585 315.584 527.244 319.447 525.225 323.479C524.115 325.589 522.855 328.519 521.955 330.739C521.215 332.549 520.415 335.039 519.765 336.889C518.836 339.69 518.094 342.55 517.545 345.449C516.749 349.933 516.188 354.456 515.865 358.999C515.64 362.303 515.66 365.618 515.925 368.919C516.225 372.089 516.705 376.319 517.225 379.469C517.575 381.579 518.335 384.359 518.815 386.469C519.225 388.239 521.125 393.869 522.385 397.049ZM522.385 397.049C521.965 396.049 521.595 394.949 521.265 393.869M522.385 397.049C521.965 396.009 521.595 394.949 521.265 393.869M521.265 393.869C512.665 364.869 543.055 327.699 588.995 310.929C543.055 327.699 512.665 364.929 521.265 393.869Z" stroke="#ee710b" stroke-width="0.1" stroke-miterlimit="10"/>
<mask id="mask1_75_1425" style="mask-type:luminance" maskUnits="userSpaceOnUse" x="515" y="274" width="179" height="179">
<path d="M686.735 329.829C689.105 335.829 689.105 335.829 691.465 345.229C692.163 348.271 692.648 351.359 692.915 354.469C693.29 357.949 693.44 361.449 693.365 364.949C693.255 367.019 693.205 369.769 692.975 371.829C692.655 374.709 692.155 378.549 691.535 381.379C689.64 390.577 686.284 399.412 681.595 407.549C677.164 415.264 671.606 422.274 665.105 428.349C659.242 433.833 652.654 438.486 645.525 442.179C642.113 443.936 638.597 445.482 634.995 446.809C633.355 447.349 631.205 448.169 629.535 448.599C622.825 450.359 622.125 450.539 618.535 451.089C616.865 451.349 614.645 451.699 612.965 451.809C609.615 452.019 605.135 452.169 601.775 452.169C597.923 452.032 594.083 451.661 590.275 451.059C586.085 450.388 581.951 449.409 577.905 448.129C574.034 446.869 570.238 445.39 566.535 443.699C561.898 441.513 557.458 438.93 553.265 435.979C549.019 433.005 545.047 429.658 541.395 425.979C539.985 424.489 538.075 422.529 536.775 420.979C534.875 418.649 532.395 415.489 530.775 412.979C529.605 411.209 528.065 408.819 527.075 406.979C525.535 404.089 523.635 400.149 522.335 397.149C533.145 423.619 575.915 432.149 620.135 416.049C575.915 432.199 533.135 423.619 522.335 397.149C521.595 395.089 520.495 392.379 519.855 390.289C519.075 387.759 518.255 384.289 517.605 381.739C516.916 378.699 516.434 375.615 516.165 372.509C515.791 369.025 515.641 365.522 515.715 362.019C515.825 359.959 515.875 357.199 516.095 355.149C516.415 352.269 516.915 348.419 517.545 345.589C519.439 336.395 522.791 327.563 527.475 319.429C529.775 315.444 532.368 311.637 535.235 308.039C537.92 304.697 540.837 301.55 543.965 298.619C549.831 293.136 556.423 288.486 563.555 284.799C566.967 283.04 570.483 281.494 574.085 280.169C575.725 279.629 577.875 278.799 579.535 278.369C586.955 276.429 586.955 276.429 590.535 275.879C592.195 275.619 594.425 275.269 596.105 275.169C599.455 274.949 603.925 274.799 607.285 274.799C611.138 274.935 614.978 275.306 618.785 275.909C622.975 276.578 627.11 277.557 631.155 278.839C635.029 280.101 638.828 281.58 642.535 283.269C647.168 285.458 651.604 288.041 655.795 290.989C660.043 293.964 664.019 297.311 667.675 300.989C669.075 302.479 670.985 304.439 672.285 305.989C674.185 308.319 676.665 311.479 678.285 313.989C681.638 318.965 684.469 324.273 686.735 329.829Z" fill="white"/>
</mask>
<g mask="url(#mask1_75_1425)">
<path d="M593.235 435.379C560.515 435.379 531.555 420.059 520.905 393.999C512.245 364.839 542.715 327.449 588.855 310.609L589.165 310.499L589.285 310.799C603.885 346.549 622.765 399.189 631.365 428.159L631.455 428.469L631.155 428.569C619.011 433.039 606.176 435.344 593.235 435.379ZM588.755 311.379C543.145 328.149 513.015 365.069 521.545 393.789C536.025 429.259 584.905 444.609 630.545 428.069C621.985 399.119 603.275 346.959 588.755 311.359V311.379Z" stroke="#ee710b" stroke-width="0.1" stroke-miterlimit="10"/>
<path d="M586.915 399.099C558.655 399.099 533.625 385.869 524.435 363.349L525.055 363.089C537.595 393.779 579.915 407.009 619.405 392.589L619.635 393.229C609.154 397.079 598.081 399.065 586.915 399.099Z" stroke="#ee710b" stroke-width="0.1" stroke-miterlimit="10"/>
<path d="M545.625 422.529C536.995 393.469 556.325 343.299 588.705 310.689L589.185 311.169C556.955 343.619 537.705 393.449 546.275 422.329L545.625 422.529Z" stroke="#ee710b" stroke-width="0.1" stroke-miterlimit="10"/>
<path d="M585.015 434.859C576.405 405.859 578.015 350.219 588.615 310.859L589.265 311.039C578.695 350.319 577.085 405.789 585.665 434.689L585.015 434.859Z" stroke="#ee710b" stroke-width="0.1" stroke-miterlimit="10"/>
<path d="M630.785 428.699L630.685 428.349C622.085 399.399 603.225 346.779 588.635 311.059L588.495 310.729L588.825 310.609C617.995 299.949 647.395 299.609 667.465 309.709C678.095 315.059 685.265 323.079 688.185 332.909C694.185 347.689 693.695 363.909 686.675 379.799C677.125 401.399 656.875 419.169 631.125 428.569L630.785 428.699ZM589.385 311.129C603.905 346.719 622.605 398.869 631.235 427.819C656.645 418.439 676.625 400.819 686.055 379.529C693.005 363.819 693.525 347.769 687.545 333.139C684.665 323.459 677.625 315.579 667.155 310.319C647.335 300.349 618.285 300.649 589.385 311.129Z" stroke="#ee710b" stroke-width="0.1" stroke-miterlimit="10"/>
<path d="M619.635 393.229L619.405 392.589C641.475 384.529 658.825 369.309 666.995 350.829C672.995 337.269 673.445 323.439 668.285 310.829L668.905 310.579C674.135 323.379 673.685 337.399 667.615 351.119C659.365 369.749 641.855 385.099 619.635 393.229Z" stroke="#ee710b" stroke-width="0.1" stroke-miterlimit="10"/>
<path d="M669.125 404.149C660.545 375.259 624.495 333.569 588.765 311.209L589.125 310.639C624.975 333.069 661.125 374.929 669.775 403.949L669.125 404.149Z" stroke="#ee710b" stroke-width="0.1" stroke-miterlimit="10"/>
<path d="M689.515 369.979C680.955 341.149 635.825 314.809 588.915 311.259L588.965 310.589C636.135 314.149 681.535 340.709 690.165 369.779L689.515 369.979Z" stroke="#ee710b" stroke-width="0.1" stroke-miterlimit="10"/>
<path d="M687.545 333.139C685.438 327.992 682.584 323.184 679.075 318.869C675.604 315.377 671.576 312.487 667.155 310.319C647.255 300.319 618.055 300.649 589.055 311.249L588.755 311.359L588.635 311.059C586.385 305.559 584.485 301.059 582.865 297.339C581.305 297.839 579.745 298.372 578.185 298.939L577.845 299.059L577.745 298.719C572.285 280.339 573.425 279.939 573.975 279.719C574.525 279.499 575.675 279.149 583.245 296.489C620.975 284.759 659.955 294.219 679.565 318.369C683.577 322.432 686.536 327.413 688.185 332.879L687.545 333.139ZM632.755 302.379C645.755 302.379 657.755 304.819 667.465 309.709C670.192 311.071 672.783 312.689 675.205 314.539C654.825 293.809 618.655 286.249 583.515 297.139C585.105 300.779 586.965 305.189 589.135 310.499C603.099 305.3 617.856 302.553 632.755 302.379ZM574.215 280.379C574.015 280.839 573.945 283.469 578.285 298.149C579.725 297.629 581.165 297.149 582.605 296.689C576.375 282.449 574.625 280.629 574.215 280.449V280.379Z" stroke="#ee710b" stroke-width="0.1" stroke-miterlimit="10"/>
<path d="M668.285 310.809C655.745 280.129 613.435 266.889 573.935 281.319L573.705 280.679C613.545 266.129 656.245 279.539 668.915 310.559L668.285 310.809Z" stroke="#ee710b" stroke-width="0.1" stroke-miterlimit="10"/>
<path d="M589.185 311.169L588.705 310.689C608.535 290.689 629.605 281.119 645.015 284.999C654.015 287.259 660.355 293.949 663.445 304.349L662.795 304.549C659.795 294.379 653.575 287.849 644.855 285.659C629.635 281.819 608.855 291.369 589.185 311.169Z" stroke="#ee710b" stroke-width="0.1" stroke-miterlimit="10"/>
<path d="M589.265 311.019L588.615 310.839C594.795 287.889 602.835 274.659 610.685 274.559H610.775C616.075 274.559 620.665 280.559 624.055 292.019L623.405 292.209C620.105 281.099 615.745 275.209 610.775 275.209H610.695C603.285 275.329 595.275 288.709 589.265 311.019Z" stroke="#ee710b" stroke-width="0.1" stroke-miterlimit="10"/>
<path d="M520.905 393.999C514.905 379.189 515.375 362.999 522.405 347.069C531.915 325.569 552.045 307.849 577.655 298.409C572.295 280.339 573.425 279.939 573.975 279.749C574.525 279.559 576.265 278.989 589.255 310.749L589.385 311.079L589.055 311.199C543.285 327.909 512.995 364.929 521.545 393.719L520.905 393.999ZM574.215 280.449C574.005 280.919 573.945 283.579 578.395 298.569L578.485 298.869L578.185 298.979C552.605 308.319 532.495 325.979 523.025 347.389C516.845 361.389 515.745 375.579 519.775 388.849C515.855 360.679 545.245 326.679 588.495 310.769C577.395 283.569 574.735 280.679 574.215 280.449Z" stroke="#ee710b" stroke-width="0.1" stroke-miterlimit="10"/>
<path d="M524.435 363.349C519.205 350.549 519.655 336.529 525.725 322.809C533.975 304.159 551.465 288.809 573.725 280.679L573.955 281.319C551.885 289.379 534.535 304.599 526.365 323.079C520.365 336.629 519.925 350.469 525.075 363.079L524.435 363.349Z" stroke="#ee710b" stroke-width="0.1" stroke-miterlimit="10"/>
<path d="M539.305 322.929C535.995 311.769 537.085 303.719 542.455 299.639C550.665 293.379 568.115 297.499 589.125 310.639L588.765 311.209C568.005 298.209 550.845 294.099 542.865 300.209C537.735 304.109 536.725 311.909 539.955 322.769L539.305 322.929Z" stroke="#ee710b" stroke-width="0.1" stroke-miterlimit="10"/>
<path d="M518.905 357.099C515.905 346.939 517.655 337.419 523.995 329.559C535.365 315.469 559.635 308.369 588.995 310.559L588.945 311.229C559.865 309.039 535.775 316.029 524.555 329.949C518.355 337.629 516.635 346.949 519.555 356.869L518.905 357.099Z" stroke="#ee710b" stroke-width="0.1" stroke-miterlimit="10"/>
<path d="M634.915 447.169C634.285 447.169 632.565 445.799 625.825 430.359C588.085 442.089 549.095 432.619 529.495 408.459C525.486 404.402 522.533 399.423 520.895 393.959L521.535 393.739C523.638 398.878 526.486 403.679 529.985 407.989C533.454 411.491 537.487 414.384 541.915 416.549C561.825 426.549 591.015 426.219 620.015 415.629L620.325 415.519L620.445 415.819C622.695 421.319 624.595 425.819 626.205 429.539C627.772 429.039 629.335 428.506 630.895 427.939L631.235 427.819L631.335 428.159C636.785 446.529 635.645 446.929 635.105 447.159C635.043 447.174 634.979 447.177 634.915 447.169ZM626.475 430.169C632.695 444.409 634.475 446.259 634.865 446.469C635.065 446.009 635.135 443.379 630.785 428.709C629.355 429.219 627.915 429.699 626.475 430.159V430.169ZM533.855 412.319C554.235 433.059 590.425 440.629 625.565 429.739C623.985 426.099 622.125 421.689 619.955 416.379C590.885 426.929 561.625 427.219 541.625 417.159C538.889 415.794 536.287 414.173 533.855 412.319Z" stroke="#ee710b" stroke-width="0.1" stroke-miterlimit="10"/>
<path d="M602.645 452.059C574.385 452.059 549.355 438.829 540.165 416.309L540.785 416.059C553.325 446.749 595.645 459.979 635.135 445.559L635.365 446.189C624.886 450.044 613.811 452.03 602.645 452.059Z" stroke="#ee710b" stroke-width="0.1" stroke-miterlimit="10"/>
<path d="M612.305 445.209C595.735 445.209 581.065 437.449 575.665 424.209L576.295 423.959C583.595 441.819 608.225 449.509 631.235 441.109L631.465 441.739C625.331 444.009 618.846 445.183 612.305 445.209Z" stroke="#ee710b" stroke-width="0.1" stroke-miterlimit="10"/>
<path d="M571.185 442.719C568.783 442.73 566.388 442.445 564.055 441.869C555.055 439.609 548.725 432.919 545.625 422.529L546.275 422.329C549.275 432.489 555.505 439.019 564.275 441.219C579.455 445.039 600.275 435.509 619.945 415.709L620.425 416.189C603.455 433.229 585.635 442.719 571.185 442.719Z" stroke="#ee710b" stroke-width="0.1" stroke-miterlimit="10"/>
<path d="M598.295 452.309C592.995 452.309 588.415 446.309 585.015 434.859L585.665 434.669C588.965 445.769 593.335 451.669 598.295 451.669H598.375C605.795 451.579 613.805 438.209 619.805 415.899L620.465 416.079C614.285 439.079 606.235 452.249 598.385 452.349L598.295 452.309Z" stroke="#ee710b" stroke-width="0.1" stroke-miterlimit="10"/>
<path d="M634.915 447.169C634.135 447.169 631.645 445.029 619.815 416.079L619.685 415.749L620.015 415.629C665.795 398.919 696.085 361.889 687.535 333.109L688.165 332.879C694.215 347.689 693.695 363.879 686.675 379.799C677.155 401.309 657.035 419.029 631.425 428.469C636.775 446.539 635.645 446.929 635.105 447.129C635.045 447.154 634.981 447.167 634.915 447.169ZM620.575 416.169C631.685 443.329 634.335 446.169 634.865 446.479C635.065 446.019 635.135 443.349 630.685 428.369L630.595 428.069L630.895 427.959C656.475 418.619 676.575 400.959 686.055 379.549C692.235 365.549 693.325 351.359 689.295 338.089C693.225 366.239 663.855 400.239 620.575 416.149V416.169Z" stroke="#ee710b" stroke-width="0.1" stroke-miterlimit="10"/>
<path d="M635.365 446.189L635.135 445.559C657.205 437.499 674.555 422.279 682.725 403.789C688.725 390.239 689.175 376.399 684.015 363.789L684.635 363.529C689.865 376.329 689.415 390.349 683.345 404.079C675.095 422.719 657.615 438.069 635.365 446.189Z" stroke="#ee710b" stroke-width="0.1" stroke-miterlimit="10"/>
<path d="M631.465 441.769L631.235 441.139C644.095 436.449 654.235 427.579 658.955 416.819C662.445 408.939 662.705 400.889 659.705 393.549L660.335 393.299C663.405 400.809 663.135 409.039 659.575 417.089C654.735 428.019 644.495 437.019 631.465 441.769Z" stroke="#ee710b" stroke-width="0.1" stroke-miterlimit="10"/>
<path d="M656.575 430.099C647.325 430.099 634.495 425.329 619.955 416.239L620.315 415.659C641.065 428.659 658.225 432.779 666.215 426.659C671.335 422.759 672.345 414.959 669.125 404.109L669.775 403.909C673.085 415.059 671.995 423.109 666.615 427.199C664.085 429.159 660.685 430.099 656.575 430.099Z" stroke="#ee710b" stroke-width="0.1" stroke-miterlimit="10"/>
<path d="M630.485 416.689C627.115 416.689 623.645 416.559 620.105 416.289V415.609C649.205 417.809 673.275 410.809 684.505 396.889C690.695 389.209 692.415 379.889 689.505 369.979L690.155 369.779C693.155 379.929 691.415 389.449 685.065 397.309C675.085 409.709 655.095 416.689 630.485 416.689Z" stroke="#ee710b" stroke-width="0.1" stroke-miterlimit="10"/>
<path d="M619.945 416.379L619.815 416.079C605.215 380.319 586.345 327.669 577.745 298.719L577.655 298.409L577.955 298.299C624.055 281.459 673.505 296.979 688.165 332.879C696.855 362.039 666.355 399.449 620.245 416.269L619.945 416.379ZM578.485 298.829C587.085 327.749 605.795 379.909 620.325 415.519C665.925 398.749 696.055 361.839 687.535 333.119C673.035 297.629 624.165 282.289 578.485 298.829Z" stroke="#ee710b" stroke-width="0.1" stroke-miterlimit="10"/>
<path d="M684.015 363.779C671.475 333.089 629.165 319.859 589.665 334.279L589.435 333.649C629.275 319.099 671.975 332.509 684.645 363.519L684.015 363.779Z" stroke="#ee710b" stroke-width="0.1" stroke-miterlimit="10"/>
<path d="M659.705 393.549C652.405 375.689 627.765 367.999 604.765 376.399L604.535 375.759C627.875 367.239 652.905 375.109 660.335 393.299L659.705 393.549Z" stroke="#ee710b" stroke-width="0.1" stroke-miterlimit="10"/>
<path d="M620.375 416.189L619.895 415.709C652.115 383.259 671.365 333.389 662.795 304.549L663.445 304.349C672.075 333.449 652.755 383.579 620.375 416.189Z" stroke="#ee710b" stroke-width="0.1" stroke-miterlimit="10"/>
<path d="M620.465 416.039L619.805 415.859C630.375 376.579 631.995 321.109 623.405 292.209L624.055 292.019C632.675 321.019 631.055 376.659 620.465 416.039Z" stroke="#ee710b" stroke-width="0.1" stroke-miterlimit="10"/>
<path d="M576.325 424.499C563.325 424.499 551.325 422.059 541.615 417.159C530.975 411.809 523.815 403.789 520.895 393.959C514.895 379.189 515.375 362.959 522.405 347.069C531.955 325.489 552.195 307.709 577.955 298.299L578.285 298.179L578.395 298.529C586.985 327.449 605.855 380.079 620.445 415.819L620.575 416.149L620.245 416.269C606.193 421.536 591.332 424.321 576.325 424.499ZM577.855 299.059C552.435 308.439 532.465 326.059 523.035 347.349C516.085 363.059 515.565 379.109 521.545 393.739C524.415 403.409 531.465 411.289 541.925 416.549C561.755 426.549 590.805 426.229 619.695 415.749C605.165 380.139 586.465 327.999 577.855 299.059Z" stroke="#ee710b" stroke-width="0.1" stroke-miterlimit="10"/>
<path d="M540.165 416.309C534.935 403.519 535.385 389.499 541.455 375.769C549.705 357.119 567.195 341.769 589.455 333.649L589.685 334.279C567.615 342.339 550.265 357.559 542.095 376.039C536.095 389.599 535.655 403.439 540.805 416.039L540.165 416.309Z" stroke="#ee710b" stroke-width="0.1" stroke-miterlimit="10"/>
<path d="M575.665 424.239C572.605 416.729 572.865 408.499 576.425 400.449C581.265 389.519 591.505 380.519 604.535 375.759L604.765 376.399C591.905 381.089 581.765 389.959 577.045 400.719C573.555 408.599 573.295 416.649 576.295 423.989L575.665 424.239Z" stroke="#ee710b" stroke-width="0.1" stroke-miterlimit="10"/>
<path d="M619.955 416.239C584.105 393.809 547.955 351.949 539.305 322.929L539.955 322.729C548.535 351.619 584.575 393.309 620.315 415.659L619.955 416.239Z" stroke="#ee710b" stroke-width="0.1" stroke-miterlimit="10"/>
<path d="M620.105 416.289C572.945 412.729 527.545 386.169 518.905 357.099L519.555 356.899C528.125 385.739 573.245 412.069 620.155 415.609L620.105 416.289Z" stroke="#ee710b" stroke-width="0.1" stroke-miterlimit="10"/>
<path d="M601.855 452.509C597.978 452.386 594.111 452.032 590.275 451.449C586.067 450.758 581.915 449.755 577.855 448.449C573.973 447.177 570.164 445.691 566.445 443.999C561.79 441.799 557.331 439.206 553.115 436.249C548.851 433.249 544.862 429.875 541.195 426.169L540.485 425.419C539.155 424.029 537.665 422.419 536.565 421.119C535.095 419.319 532.355 415.889 530.515 413.119C528.835 410.589 527.585 408.539 526.795 407.049C525.555 404.719 524.095 401.729 522.895 399.099C522.595 398.469 522.305 397.829 522.045 397.179C521.785 396.529 521.525 395.779 521.235 395.019C520.625 393.399 519.985 391.729 519.555 390.299C518.895 388.159 518.215 385.429 517.615 383.019L517.295 381.729C516.609 378.671 516.128 375.571 515.855 372.449C515.466 368.95 515.315 365.428 515.405 361.909C515.405 361.329 515.465 360.679 515.485 360.019C515.555 358.369 515.635 356.499 515.795 355.019C516.105 352.259 516.595 348.359 517.245 345.429C519.152 336.197 522.528 327.331 527.245 319.169C531.69 311.423 537.268 304.385 543.795 298.289C549.683 292.778 556.302 288.104 563.465 284.399C566.89 282.636 570.42 281.087 574.035 279.759L575.715 279.179C577.015 278.719 578.365 278.249 579.515 277.949C586.945 276.009 586.945 276.009 590.515 275.459C592.195 275.189 594.425 274.849 596.115 274.739C599.495 274.519 603.935 274.379 607.195 274.379H607.315C611.18 274.497 615.034 274.854 618.855 275.449C623.049 276.15 627.186 277.153 631.235 278.449C635.122 279.718 638.935 281.203 642.655 282.899C647.314 285.087 651.771 287.68 655.975 290.649C660.228 293.633 664.204 296.993 667.855 300.689L668.585 301.449C669.895 302.839 671.395 304.399 672.485 305.739C673.965 307.549 676.715 310.999 678.545 313.739C681.901 318.755 684.739 324.099 687.015 329.689C689.385 335.689 689.385 335.689 691.755 345.129C692.447 348.189 692.931 351.293 693.205 354.419C693.594 357.915 693.744 361.433 693.655 364.949C693.655 365.559 693.605 366.229 693.575 366.949C693.505 368.569 693.435 370.419 693.275 371.869C692.965 374.649 692.455 378.569 691.825 381.459C689.911 390.689 686.535 399.554 681.825 407.719C679.519 411.719 676.915 415.54 674.035 419.149C671.343 422.506 668.412 425.664 665.265 428.599C659.397 434.092 652.802 438.752 645.665 442.449C642.238 444.21 638.709 445.762 635.095 447.099L633.425 447.669C632.125 448.129 630.775 448.599 629.615 448.899H629.525C625.947 449.983 622.303 450.835 618.615 451.449H618.525C616.905 451.699 614.685 452.049 613.015 452.159C609.605 452.359 605.155 452.509 601.855 452.509ZM526.385 404.899C526.705 405.539 527.025 406.149 527.325 406.719C528.115 408.199 529.325 410.219 531.015 412.719C532.835 415.479 535.565 418.889 537.015 420.719C538.095 422.039 539.585 423.609 540.905 424.989L541.615 425.739C548.857 433.039 557.317 439.019 566.615 443.409C570.304 445.098 574.087 446.574 577.945 447.829C581.976 449.1 586.093 450.076 590.265 450.749C594.056 451.346 597.88 451.713 601.715 451.849H601.855C605.095 451.849 609.535 451.709 612.935 451.489C614.565 451.389 616.775 451.039 618.385 450.789H618.465C622.132 450.208 625.757 449.387 629.315 448.329H629.405C630.535 448.029 631.875 447.559 633.165 447.109L634.855 446.449C638.444 445.127 641.947 443.584 645.345 441.829C652.446 438.167 659.011 433.547 664.855 428.099C667.976 425.185 670.884 422.05 673.555 418.719C676.413 415.138 678.997 411.348 681.285 407.379C685.951 399.271 689.293 390.47 691.185 381.309C691.815 378.449 692.315 374.549 692.625 371.789C692.775 370.359 692.855 368.529 692.915 366.909C692.915 366.219 692.975 365.549 693.005 364.909C693.089 361.423 692.939 357.935 692.555 354.469C692.281 351.381 691.804 348.314 691.125 345.289C688.755 335.849 688.755 335.849 686.405 329.919C684.14 324.377 681.323 319.077 677.995 314.099C676.195 311.369 673.455 307.939 671.995 306.099C670.915 304.779 669.435 303.219 668.125 301.849L667.395 301.089C663.767 297.404 659.81 294.057 655.575 291.089C651.405 288.165 646.988 285.609 642.375 283.449C638.681 281.765 634.895 280.289 631.035 279.029C627.005 277.756 622.888 276.78 618.715 276.109C614.924 275.511 611.101 275.143 607.265 275.009C604.015 275.009 599.525 275.149 596.105 275.369C594.455 275.479 592.235 275.819 590.615 276.079C587.025 276.639 587.025 276.639 579.615 278.559C578.485 278.859 577.155 279.329 575.865 279.779L574.175 280.359C570.598 281.678 567.105 283.214 563.715 284.959C556.604 288.634 550.032 293.271 544.185 298.739C537.716 304.788 532.185 311.768 527.775 319.449C523.093 327.562 519.743 336.374 517.855 345.549C517.215 348.469 516.715 352.339 516.415 355.079C516.255 356.539 516.175 358.399 516.115 360.029C516.115 360.699 516.115 361.349 516.035 361.939C515.946 365.425 516.093 368.913 516.475 372.379C516.752 375.467 517.233 378.534 517.915 381.559L518.235 382.849C518.825 385.249 519.505 387.969 520.155 390.089C520.585 391.499 521.225 393.159 521.835 394.769L522.625 396.919C522.885 397.519 523.165 398.149 523.465 398.799C535.465 423.719 577.075 431.199 619.685 415.749H619.745L619.905 415.689L620.135 416.329C580.685 430.719 541.915 425.449 526.425 404.899H526.385Z" stroke="#ee710b" stroke-width="0.1" stroke-miterlimit="10"/>
</g>
<path d="M522.335 397.149C523.635 400.149 525.535 404.089 527.075 406.979C528.065 408.819 529.605 411.209 530.775 412.979C532.395 415.489 534.875 418.649 536.775 420.979C538.075 422.529 539.985 424.489 541.395 425.979C545.047 429.658 549.019 433.005 553.265 435.979C557.458 438.93 561.898 441.513 566.535 443.699C570.238 445.39 574.034 446.869 577.905 448.129C581.951 449.409 586.085 450.388 590.275 451.059C594.083 451.661 597.923 452.032 601.775 452.169C605.135 452.169 609.615 452.019 612.965 451.809C614.645 451.699 616.865 451.349 618.535 451.089C622.125 450.539 622.825 450.359 629.535 448.599C631.205 448.169 633.355 447.349 634.995 446.809C638.597 445.482 642.113 443.936 645.525 442.179C652.654 438.486 659.242 433.833 665.105 428.349C671.606 422.274 677.164 415.264 681.595 407.549C686.284 399.412 689.64 390.577 691.535 381.379C692.155 378.549 692.655 374.709 692.975 371.829C693.205 369.769 693.255 367.019 693.365 364.949C693.44 361.449 693.29 357.949 692.915 354.469C692.648 351.359 692.163 348.271 691.465 345.229C689.105 335.829 689.105 335.829 686.735 329.829C684.469 324.273 681.638 318.965 678.285 313.989C676.665 311.479 674.185 308.319 672.285 305.989C670.985 304.439 669.075 302.479 667.675 300.989C664.019 297.311 660.043 293.964 655.795 290.989C651.604 288.041 647.168 285.458 642.535 283.269C638.828 281.58 635.029 280.101 631.155 278.839C627.11 277.557 622.975 276.578 618.785 275.909C614.978 275.306 611.138 274.935 607.285 274.799C603.925 274.799 599.455 274.949 596.105 275.169C594.425 275.269 592.195 275.619 590.535 275.879C586.955 276.429 586.955 276.429 579.535 278.369C577.875 278.799 575.725 279.629 574.085 280.169C570.483 281.494 566.967 283.04 563.555 284.799C556.423 288.486 549.831 293.136 543.965 298.619C540.837 301.55 537.92 304.697 535.235 308.039C532.368 311.637 529.775 315.444 527.475 319.429C522.791 327.563 519.439 336.395 517.545 345.589C516.915 348.419 516.415 352.269 516.095 355.149C515.875 357.199 515.825 359.959 515.715 362.019C515.641 365.522 515.791 369.025 516.165 372.509C516.434 375.615 516.916 378.699 517.605 381.739C518.255 384.289 519.075 387.759 519.855 390.289C520.495 392.379 521.595 395.089 522.335 397.149ZM522.335 397.149C533.145 423.619 575.915 432.149 620.135 416.049C575.915 432.199 533.135 423.619 522.335 397.149Z" stroke="#ee710b" stroke-width="0.1" stroke-miterlimit="10"/>
<mask id="mask2_75_1425" style="mask-type:luminance" maskUnits="userSpaceOnUse" x="515" y="274" width="179" height="179">
<path d="M521.725 397.299C532.625 423.979 575.725 432.619 620.255 416.299C575.705 432.569 532.625 423.929 521.725 397.299C520.455 394.099 518.545 388.419 518.135 386.639C517.645 384.519 516.875 381.709 516.525 379.559C516.005 376.389 515.525 372.129 515.215 368.929C514.95 365.602 514.93 362.259 515.155 358.929C515.486 354.379 516.054 349.85 516.855 345.359C517.413 342.436 518.165 339.553 519.105 336.729C519.755 334.859 520.565 332.359 521.305 330.529C522.215 328.299 523.475 325.339 524.595 323.209C526.612 319.153 528.953 315.267 531.595 311.589C534.056 308.12 536.767 304.834 539.705 301.759C542.474 298.821 545.452 296.087 548.615 293.579C551.66 291.154 554.856 288.926 558.185 286.909C561.464 284.906 564.879 283.135 568.405 281.609C570.025 280.959 572.145 279.989 573.795 279.439C580.795 277.119 581.425 276.929 584.795 276.189C588.165 275.449 592.555 274.829 595.905 274.399C597.625 274.189 599.905 274.149 601.675 274.039C605.577 273.925 609.481 274.062 613.365 274.449C621.803 275.301 630.078 277.341 637.945 280.509C642.331 282.266 646.567 284.373 650.615 286.809C652.855 288.179 655.755 290.139 657.885 291.679C659.495 292.849 661.515 294.589 663.065 295.839C675.961 307.023 685.383 321.667 690.215 338.039C691.417 342.25 692.355 346.532 693.025 350.859C693.574 355.543 693.867 360.253 693.905 364.969C693.929 368.263 693.692 371.553 693.195 374.809C692.865 376.809 692.505 379.529 692.065 381.519C691.495 384.139 690.665 387.609 689.825 390.149C688.38 394.802 686.544 399.325 684.335 403.669C682.205 407.929 681.745 408.669 677.335 415.289C674.888 418.769 672.177 422.055 669.225 425.119C666.453 428.05 663.475 430.78 660.315 433.289C654.261 438.126 647.605 442.16 640.515 445.289C635.23 447.592 629.743 449.403 624.125 450.699C620.405 451.549 620.265 451.559 612.975 452.489C611.255 452.709 608.975 452.829 607.205 452.859C594.796 453.256 582.442 451.052 570.935 446.389C568.516 445.443 566.15 444.368 563.845 443.169C560.465 441.329 556.045 438.679 552.845 436.549C548.542 433.557 544.525 430.172 540.845 426.439C536.864 422.413 533.271 418.02 530.115 413.319C528.325 410.609 526.115 406.829 524.645 403.959C523.735 402.009 522.635 399.289 521.725 397.299Z" fill="white"/>
</mask>
<g mask="url(#mask2_75_1425)">
<path d="M635.135 447.789C634.515 447.789 632.785 446.419 625.985 430.859C587.985 442.659 548.735 433.149 528.985 408.859C524.929 404.77 521.941 399.746 520.285 394.229L520.925 393.999C523.049 399.19 525.926 404.039 529.465 408.389C532.96 411.905 537.015 414.815 541.465 416.999C561.525 427.089 590.945 426.739 620.145 416.079L620.455 415.959L620.575 416.269C622.835 421.799 624.745 426.339 626.375 430.069C627.955 429.569 629.529 429.032 631.095 428.459L631.435 428.339L631.535 428.679C637.035 447.199 635.895 447.599 635.345 447.789C635.276 447.802 635.205 447.802 635.135 447.789ZM626.635 430.649C632.915 445.029 634.635 446.879 635.095 447.089C635.295 446.629 635.375 443.999 630.985 429.179C629.565 429.699 628.115 430.189 626.635 430.649ZM533.335 412.649C553.865 433.549 590.335 441.169 625.715 430.189C624.115 426.519 622.245 422.089 620.065 416.739C590.785 427.359 561.305 427.659 541.155 417.529C538.4 416.169 535.782 414.548 533.335 412.689V412.649Z" stroke="#ee710b" stroke-width="0.1" stroke-miterlimit="10"/>
<path d="M612.365 445.829C595.675 445.829 580.895 438.009 575.465 424.709L576.085 424.449C583.435 442.449 608.265 450.189 631.435 441.729L631.665 442.369C625.483 444.64 618.951 445.811 612.365 445.829Z" stroke="#ee710b" stroke-width="0.1" stroke-miterlimit="10"/>
<path d="M602.635 452.729C574.165 452.729 548.955 439.399 539.695 416.729L540.315 416.469C552.945 447.379 595.585 460.719 635.315 446.189L635.555 446.819C625.011 450.694 613.869 452.694 602.635 452.729Z" stroke="#ee710b" stroke-width="0.1" stroke-miterlimit="10"/>
<path d="M570.945 443.319C568.526 443.332 566.113 443.044 563.765 442.459C554.765 440.189 548.315 433.459 545.195 422.959L545.845 422.769C548.845 433.009 555.145 439.589 563.935 441.769C579.255 445.619 600.215 436.019 620.015 416.079L620.495 416.549C603.445 433.759 585.505 443.319 570.945 443.319Z" stroke="#ee710b" stroke-width="0.1" stroke-miterlimit="10"/>
<path d="M598.255 452.979C592.915 452.979 588.255 446.899 584.875 435.389L585.525 435.199C588.855 446.389 593.245 452.299 598.255 452.299H598.335C605.815 452.209 613.885 438.729 619.925 416.299L620.575 416.479C614.355 439.599 606.255 452.919 598.345 453.019L598.255 452.979Z" stroke="#ee710b" stroke-width="0.1" stroke-miterlimit="10"/>
<path d="M635.135 447.789C634.355 447.789 631.855 445.649 619.945 416.479L619.805 416.159L620.135 416.039C666.255 399.189 696.765 361.889 688.135 332.879L688.775 332.659C694.865 347.579 694.345 363.919 687.265 379.929C677.685 401.589 657.405 419.439 631.605 428.929C637.005 447.149 635.865 447.549 635.325 447.739C635.265 447.766 635.201 447.783 635.135 447.789ZM620.695 416.549C631.905 443.959 634.565 446.829 635.095 447.089C635.295 446.629 635.375 443.959 630.885 428.829L630.795 428.529L631.085 428.419C656.855 419.009 677.085 401.229 686.655 379.649C692.885 365.569 693.985 351.229 689.915 337.849C693.905 366.239 664.285 400.519 620.695 416.549Z" stroke="#ee710b" stroke-width="0.1" stroke-miterlimit="10"/>
<path d="M631.665 442.369L631.435 441.729C644.435 436.999 654.575 428.069 659.365 417.229C662.885 409.279 663.145 401.229 660.125 393.789L660.745 393.529C663.835 401.099 663.575 409.389 659.985 417.529C655.115 428.509 644.795 437.569 631.665 442.369Z" stroke="#ee710b" stroke-width="0.1" stroke-miterlimit="10"/>
<path d="M635.605 446.809L635.365 446.179C657.605 438.059 675.075 422.719 683.365 404.099C689.365 390.449 689.855 376.509 684.665 363.789L685.285 363.539C690.545 376.429 690.095 390.539 683.985 404.379C675.625 423.159 658.005 438.629 635.605 446.809Z" stroke="#ee710b" stroke-width="0.1" stroke-miterlimit="10"/>
<path d="M656.965 430.609C647.655 430.609 634.725 425.799 620.075 416.609L620.435 416.039C641.345 429.119 658.625 433.279 666.665 427.149C671.855 423.249 672.855 415.389 669.605 404.449L670.255 404.249C673.585 415.489 672.495 423.599 667.075 427.719C664.535 429.659 661.105 430.609 656.965 430.609Z" stroke="#ee710b" stroke-width="0.1" stroke-miterlimit="10"/>
<path d="M630.695 417.089C627.282 417.089 623.792 416.956 620.225 416.689V416.019C649.525 418.229 673.785 411.179 685.095 397.159C691.345 389.409 693.095 380.029 690.095 370.019L690.745 369.829C693.745 380.059 692.015 389.659 685.625 397.579C675.605 410.059 655.475 417.089 630.695 417.089Z" stroke="#ee710b" stroke-width="0.1" stroke-miterlimit="10"/>
<path d="M620.065 416.779L619.945 416.479C605.235 380.479 586.215 327.419 577.545 298.239L577.455 297.929L577.755 297.829C624.205 280.829 674.015 296.489 688.755 332.659C697.485 362.029 666.755 399.659 620.335 416.659L620.065 416.779ZM578.285 298.349C586.965 327.499 605.815 380.059 620.445 415.919C666.385 399.029 696.745 361.829 688.145 332.919C673.555 297.149 624.315 281.689 578.285 298.349Z" stroke="#ee710b" stroke-width="0.1" stroke-miterlimit="10"/>
<path d="M660.125 393.789C652.775 375.789 627.945 368.039 604.775 376.499L604.535 375.869C628.045 367.289 653.265 375.209 660.745 393.529L660.125 393.789Z" stroke="#ee710b" stroke-width="0.1" stroke-miterlimit="10"/>
<path d="M684.615 363.789C671.985 332.879 629.335 319.549 589.555 334.069L589.325 333.439C629.455 318.779 672.475 332.289 685.235 363.539L684.615 363.789Z" stroke="#ee710b" stroke-width="0.1" stroke-miterlimit="10"/>
<path d="M620.495 416.589L620.015 416.119C652.475 383.429 671.865 333.179 663.225 304.119L663.875 303.929C672.575 333.199 653.115 383.749 620.495 416.589Z" stroke="#ee710b" stroke-width="0.1" stroke-miterlimit="10"/>
<path d="M620.575 416.449L619.925 416.269C630.575 376.709 632.205 320.819 623.555 291.689L624.205 291.499C632.855 320.719 631.255 376.769 620.575 416.449Z" stroke="#ee710b" stroke-width="0.1" stroke-miterlimit="10"/>
<path d="M576.125 424.959C562.995 424.959 550.965 422.499 541.125 417.569C530.405 412.179 523.195 404.089 520.245 394.189C514.165 379.299 514.685 362.959 521.765 346.949C531.385 325.199 551.765 307.299 577.765 297.829L578.105 297.699L578.205 298.049C586.855 327.209 605.855 380.229 620.565 416.229L620.695 416.549L620.365 416.669C606.21 421.973 591.241 424.778 576.125 424.959ZM577.645 298.579C552.045 308.029 531.925 325.739 522.415 347.219C515.415 363.059 514.895 379.219 520.915 393.959C523.815 403.719 530.915 411.659 541.455 416.959C561.455 427.009 590.705 426.699 619.805 416.159C605.175 380.289 586.335 327.749 577.645 298.579Z" stroke="#ee710b" stroke-width="0.1" stroke-miterlimit="10"/>
<path d="M575.465 424.709C572.375 417.139 572.635 408.849 576.225 400.709C581.095 389.709 591.415 380.629 604.535 375.839L604.775 376.469C591.775 381.209 581.635 390.139 576.845 400.979C573.325 408.919 573.065 417.029 576.085 424.419L575.465 424.709Z" stroke="#ee710b" stroke-width="0.1" stroke-miterlimit="10"/>
<path d="M539.695 416.719C534.425 403.819 534.875 389.719 540.995 375.869C549.305 357.089 566.925 341.619 589.325 333.439L589.555 334.069C567.325 342.189 549.845 357.529 541.615 376.149C535.615 389.799 535.125 403.739 540.315 416.459L539.695 416.719Z" stroke="#ee710b" stroke-width="0.1" stroke-miterlimit="10"/>
<path d="M620.075 416.639C583.955 394.039 547.505 351.869 538.825 322.639L539.475 322.449C548.115 351.559 584.475 393.569 620.475 416.089L620.075 416.639Z" stroke="#ee710b" stroke-width="0.1" stroke-miterlimit="10"/>
<path d="M620.225 416.689C572.715 413.099 526.985 386.349 518.225 357.049L518.875 356.849C527.505 385.909 572.975 412.449 620.225 416.019V416.689Z" stroke="#ee710b" stroke-width="0.1" stroke-miterlimit="10"/>
<path d="M593.155 435.909C560.155 435.909 531.015 420.479 520.295 394.219C511.585 364.869 542.295 327.219 588.725 310.219L589.035 310.109L589.155 310.409C603.855 346.449 622.855 399.449 631.525 428.639L631.615 428.939L631.325 429.049C619.1 433.545 606.181 435.867 593.155 435.909ZM520.925 393.979C535.535 429.729 584.765 445.189 630.795 428.529C622.115 399.379 603.265 346.819 588.635 310.949C542.695 327.849 512.345 365.039 520.925 393.979Z" stroke="#ee710b" stroke-width="0.1" stroke-miterlimit="10"/>
<path d="M586.785 399.359C558.315 399.359 533.105 386.029 523.845 363.359L524.465 363.109C537.095 394.029 579.745 407.349 619.465 392.829L619.705 393.459C609.16 397.331 598.019 399.328 586.785 399.359Z" stroke="#ee710b" stroke-width="0.1" stroke-miterlimit="10"/>
<path d="M545.195 422.959C536.505 393.679 555.965 343.129 588.585 310.289L589.065 310.759C556.595 343.449 537.215 393.699 545.845 422.759L545.195 422.959Z" stroke="#ee710b" stroke-width="0.1" stroke-miterlimit="10"/>
<path d="M584.855 435.389C576.175 406.159 577.855 350.109 588.475 310.439L589.135 310.609C578.485 350.179 576.855 406.069 585.505 435.199L584.855 435.389Z" stroke="#ee710b" stroke-width="0.1" stroke-miterlimit="10"/>
<path d="M630.985 429.179L630.885 428.829C622.225 399.669 603.215 346.649 588.505 310.649L588.375 310.329L588.705 310.209C618.095 299.469 647.705 299.149 667.915 309.309C678.635 314.699 685.855 322.789 688.795 332.689C694.875 347.579 694.355 363.919 687.275 379.929C677.655 401.669 657.275 419.579 631.325 429.049L630.985 429.179ZM589.265 310.719C603.905 346.589 622.735 399.129 631.425 428.299C657.035 418.849 677.155 401.139 686.655 379.649C693.655 363.819 694.185 347.649 688.155 332.909C685.265 323.159 678.155 315.219 667.615 309.909C647.635 299.869 618.375 300.169 589.265 310.719Z" stroke="#ee710b" stroke-width="0.1" stroke-miterlimit="10"/>
<path d="M619.755 393.449L619.515 392.819C641.755 384.689 659.225 369.359 667.515 350.739C673.515 337.089 674.005 323.139 668.815 310.429L669.435 310.169C674.695 323.059 674.245 337.169 668.135 351.019C659.775 369.789 642.155 385.259 619.755 393.449Z" stroke="#ee710b" stroke-width="0.1" stroke-miterlimit="10"/>
<path d="M669.605 404.449C660.955 375.339 624.605 333.329 588.605 310.809L588.965 310.239C625.075 332.829 661.525 375.009 670.215 404.239L669.605 404.449Z" stroke="#ee710b" stroke-width="0.1" stroke-miterlimit="10"/>
<path d="M690.145 370.019C681.525 341.019 636.055 314.429 588.795 310.859L588.855 310.189C636.365 313.769 682.095 340.529 690.795 369.829L690.145 370.019Z" stroke="#ee710b" stroke-width="0.1" stroke-miterlimit="10"/>
<path d="M688.165 332.909C686.031 327.722 683.15 322.874 679.615 318.519C676.118 315.007 672.063 312.097 667.615 309.909C647.615 299.829 618.155 300.169 588.935 310.839L588.635 310.949L588.515 310.649C586.255 305.119 584.335 300.579 582.715 296.849C581.135 297.349 579.565 297.849 577.985 298.459L577.645 298.579L577.545 298.239C572.045 279.719 573.195 279.319 573.745 279.119C574.295 278.919 575.435 278.489 583.095 296.019C621.095 284.209 660.355 293.729 680.095 318.019C684.147 322.109 687.132 327.134 688.785 332.649L688.165 332.909ZM632.945 301.909C646.085 301.909 658.105 304.369 667.945 309.299C670.705 310.672 673.327 312.306 675.775 314.179C655.245 293.289 618.775 285.669 583.395 296.639C584.985 300.309 586.855 304.739 589.045 310.089C603.099 304.859 617.951 302.095 632.945 301.919V301.909ZM573.945 279.779C573.745 280.239 573.665 282.869 578.055 297.689C579.495 297.169 580.955 296.689 582.405 296.219C576.155 281.849 574.405 279.999 573.985 279.789L573.945 279.779Z" stroke="#ee710b" stroke-width="0.1" stroke-miterlimit="10"/>
<path d="M668.765 310.449C656.135 279.529 613.495 266.199 573.705 280.729L573.475 280.099C613.595 265.439 656.625 278.949 669.385 310.189L668.765 310.449Z" stroke="#ee710b" stroke-width="0.1" stroke-miterlimit="10"/>
<path d="M589.065 310.759L588.585 310.289C608.585 290.169 629.785 280.499 645.305 284.419C654.305 286.689 660.765 293.419 663.875 303.919L663.225 304.109C660.225 293.869 653.935 287.279 645.145 285.109C629.855 281.209 608.855 290.819 589.065 310.759Z" stroke="#ee710b" stroke-width="0.1" stroke-miterlimit="10"/>
<path d="M589.155 310.609L588.495 310.439C594.715 287.319 602.815 273.999 610.725 273.899H610.855C616.195 273.899 620.855 279.979 624.245 291.489L623.595 291.679C620.225 280.449 615.855 274.579 610.855 274.579H610.775C603.265 274.669 595.195 288.139 589.155 310.609Z" stroke="#ee710b" stroke-width="0.1" stroke-miterlimit="10"/>
<path d="M520.295 394.219C514.195 379.299 514.715 362.959 521.795 346.949C531.385 325.289 551.655 307.439 577.455 297.949C572.055 279.739 573.195 279.339 573.745 279.139C574.295 278.939 576.015 278.289 589.135 310.419L589.265 310.739L588.935 310.859C542.825 327.699 512.305 365.009 520.935 394.019L520.295 394.219ZM573.985 279.789C573.785 280.249 573.705 282.919 578.195 298.049L578.285 298.349L577.985 298.459C552.215 307.869 531.985 325.639 522.415 347.219C516.185 361.309 515.085 375.649 519.155 389.029C515.155 360.629 544.795 326.359 588.375 310.329C577.175 282.919 574.505 280.049 573.985 279.789Z" stroke="#ee710b" stroke-width="0.1" stroke-miterlimit="10"/>
<path d="M523.855 363.339C518.585 350.449 519.035 336.339 525.155 322.499C533.465 303.719 551.075 288.249 573.485 280.069L573.715 280.699C551.485 288.819 534.005 304.159 525.775 322.779C519.775 336.429 519.285 350.369 524.475 363.089L523.855 363.339Z" stroke="#ee710b" stroke-width="0.1" stroke-miterlimit="10"/>
<path d="M538.855 322.619C535.515 311.389 536.615 303.269 542.025 299.159C550.315 292.859 567.875 297.009 589.025 310.239L588.665 310.809C567.755 297.729 550.475 293.579 542.425 299.689C537.255 303.629 536.245 311.489 539.495 322.429L538.855 322.619Z" stroke="#ee710b" stroke-width="0.1" stroke-miterlimit="10"/>
<path d="M518.275 357.049C515.275 346.819 517.015 337.219 523.405 329.299C534.855 315.099 559.305 307.959 588.855 310.189L588.795 310.859C559.475 308.649 535.235 315.699 523.925 329.719C517.685 337.469 515.925 346.849 518.925 356.849L518.275 357.049Z" stroke="#ee710b" stroke-width="0.1" stroke-miterlimit="10"/>
<path d="M604.565 453.199C593.012 453.246 581.56 451.034 570.855 446.689C569.165 445.999 565.985 444.689 563.735 443.449C560.315 441.589 555.875 438.919 552.735 436.809C548.432 433.801 544.415 430.404 540.735 426.659C536.731 422.607 533.121 418.184 529.955 413.449C528.055 410.579 525.875 406.719 524.465 404.059C523.765 402.739 523.045 401.059 522.355 399.499L522.225 399.209C521.935 398.609 521.665 398.009 521.415 397.389C520.145 394.179 518.215 388.469 517.805 386.669C517.655 386.039 517.485 385.339 517.305 384.619C516.885 382.889 516.445 381.089 516.195 379.619C515.645 376.279 515.195 371.929 514.885 368.969C514.618 365.642 514.595 362.299 514.815 358.969C515.164 354.398 515.748 349.849 516.565 345.339C517.124 342.398 517.879 339.498 518.825 336.659C519.005 336.139 519.205 335.569 519.405 334.979C519.915 333.479 520.495 331.779 521.025 330.449C521.735 328.709 523.105 325.449 524.335 323.109C526.359 319.041 528.7 315.139 531.335 311.439C533.813 307.955 536.536 304.653 539.485 301.559C542.264 298.617 545.252 295.88 548.425 293.369C551.476 290.929 554.683 288.691 558.025 286.669C561.328 284.662 564.762 282.881 568.305 281.339C568.825 281.139 569.395 280.899 569.975 280.649C571.255 280.109 572.575 279.549 573.715 279.169C580.785 276.839 581.355 276.649 584.795 275.909C588.405 275.129 593.325 274.449 595.935 274.119C597.135 273.969 598.595 273.899 600.005 273.839L601.725 273.749C605.643 273.634 609.565 273.771 613.465 274.159C626.685 275.483 639.451 279.703 650.855 286.519C652.965 287.809 655.855 289.769 658.145 291.399C659.325 292.259 660.725 293.399 661.965 294.399L663.355 295.539C676.297 306.763 685.753 321.459 690.605 337.889C691.813 342.119 692.755 346.421 693.425 350.769C693.97 355.47 694.267 360.196 694.315 364.929C694.341 368.239 694.101 371.547 693.595 374.819C693.505 375.379 693.415 375.989 693.315 376.619C693.075 378.249 692.785 380.099 692.465 381.559C691.925 384.049 691.085 387.559 690.215 390.219C688.769 394.888 686.925 399.424 684.705 403.779C682.575 408.059 682.115 408.779 677.705 415.409C675.239 418.913 672.508 422.222 669.535 425.309C666.755 428.249 663.771 430.989 660.605 433.509C654.523 438.349 647.841 442.382 640.725 445.509C635.418 447.822 629.908 449.64 624.265 450.939C620.555 451.779 620.415 451.799 613.205 452.719H613.085C611.255 452.949 608.885 453.059 607.275 453.089L604.565 453.199ZM525.775 405.109C527.135 407.609 528.935 410.719 530.515 413.109C533.655 417.792 537.231 422.168 541.195 426.179C544.853 429.888 548.839 433.259 553.105 436.249C556.275 438.349 560.695 441.009 564.105 442.859C566.335 444.069 569.485 445.379 571.165 446.059C582.626 450.707 594.934 452.901 607.295 452.499C609.214 452.477 611.129 452.357 613.035 452.139H613.145C620.325 451.229 620.465 451.209 624.145 450.369C629.748 449.083 635.218 447.279 640.485 444.979C647.544 441.873 654.17 437.863 660.195 433.049C663.342 430.547 666.309 427.827 669.075 424.909C672.009 421.858 674.707 418.589 677.145 415.129C681.575 408.469 682.035 407.779 684.145 403.539C686.354 399.214 688.187 394.707 689.625 390.069C690.485 387.459 691.315 383.949 691.855 381.469C692.175 380.039 692.455 378.199 692.705 376.579C692.795 375.939 692.895 375.329 692.985 374.769C693.477 371.536 693.715 368.269 693.695 364.999C693.647 360.296 693.35 355.6 692.805 350.929C692.139 346.622 691.208 342.36 690.015 338.169C685.207 321.879 675.838 307.306 663.015 296.169L661.625 295.019C660.395 294.019 658.995 292.849 657.845 292.019C655.595 290.399 652.685 288.449 650.595 287.169C635.909 278.325 618.992 273.886 601.855 274.379L600.115 274.459C598.725 274.529 597.285 274.589 596.115 274.739C593.515 275.069 588.615 275.739 585.035 276.519C581.635 277.249 581.035 277.439 574.035 279.759C572.905 280.129 571.595 280.679 570.335 281.219L568.645 281.919C565.13 283.445 561.726 285.212 558.455 287.209C555.113 289.209 551.906 291.427 548.855 293.849C545.702 296.343 542.734 299.064 539.975 301.989C537.055 305.055 534.358 308.327 531.905 311.779C529.266 315.445 526.925 319.318 524.905 323.359C523.685 325.679 522.315 328.929 521.615 330.659C521.085 331.959 520.505 333.659 519.995 335.149C519.795 335.739 519.605 336.319 519.425 336.839C518.483 339.644 517.735 342.511 517.185 345.419C516.374 349.902 515.796 354.425 515.455 358.969C515.234 362.276 515.254 365.595 515.515 368.899C515.785 371.899 516.275 376.189 516.815 379.509C517.065 380.999 517.505 382.779 517.925 384.509C518.105 385.229 518.275 385.929 518.425 386.569C519.439 390.164 520.634 393.705 522.005 397.179C522.255 397.729 522.525 398.349 522.805 398.989C532.125 418.479 559.375 427.419 591.145 423.239C600.951 421.906 610.584 419.516 619.875 416.109L620.055 416.049L620.285 416.679C580.455 431.249 541.335 425.919 525.775 405.109Z" stroke="#ee710b" stroke-width="0.1" stroke-miterlimit="10"/>
</g>
<path d="M521.725 397.299C532.625 423.979 575.725 432.619 620.255 416.299C575.705 432.569 532.625 423.929 521.725 397.299ZM521.725 397.299C520.455 394.099 518.545 388.419 518.135 386.639C517.645 384.519 516.875 381.709 516.525 379.559C516.005 376.389 515.525 372.129 515.215 368.929C514.95 365.602 514.93 362.259 515.155 358.929C515.486 354.379 516.054 349.85 516.855 345.359C517.413 342.436 518.165 339.553 519.105 336.729C519.755 334.859 520.565 332.359 521.305 330.529C522.215 328.299 523.475 325.339 524.595 323.209C526.612 319.153 528.953 315.267 531.595 311.589C534.056 308.12 536.767 304.834 539.705 301.759C542.474 298.821 545.452 296.087 548.615 293.579C551.66 291.154 554.856 288.926 558.185 286.909C561.464 284.906 564.879 283.135 568.405 281.609C570.025 280.959 572.145 279.989 573.795 279.439C580.795 277.119 581.425 276.929 584.795 276.189C588.165 275.449 592.555 274.829 595.905 274.399C597.625 274.189 599.905 274.149 601.675 274.039C605.577 273.925 609.481 274.062 613.365 274.449C621.803 275.301 630.078 277.341 637.945 280.509C642.331 282.266 646.567 284.373 650.615 286.809C652.855 288.179 655.755 290.139 657.885 291.679C659.495 292.849 661.515 294.589 663.065 295.839C675.961 307.023 685.383 321.667 690.215 338.039C691.417 342.25 692.355 346.532 693.025 350.859C693.574 355.543 693.867 360.253 693.905 364.969C693.929 368.263 693.692 371.553 693.195 374.809C692.865 376.809 692.505 379.529 692.065 381.519C691.495 384.139 690.665 387.609 689.825 390.149C688.38 394.802 686.544 399.325 684.335 403.669C682.205 407.929 681.745 408.669 677.335 415.289C674.888 418.769 672.177 422.055 669.225 425.119C666.453 428.05 663.475 430.78 660.315 433.289C654.261 438.126 647.605 442.16 640.515 445.289C635.23 447.592 629.743 449.403 624.125 450.699C620.405 451.549 620.265 451.559 612.975 452.489C611.255 452.709 608.975 452.829 607.205 452.859C594.796 453.256 582.442 451.052 570.935 446.389C568.516 445.443 566.15 444.368 563.845 443.169C560.465 441.329 556.045 438.679 552.845 436.549C548.542 433.557 544.525 430.172 540.845 426.439C536.864 422.413 533.271 418.02 530.115 413.319C528.325 410.609 526.115 406.829 524.645 403.959C523.735 402.009 522.635 399.289 521.725 397.299Z" stroke="#ee710b" stroke-width="0.1" stroke-miterlimit="10"/>
<mask id="mask3_75_1425" style="mask-type:luminance" maskUnits="userSpaceOnUse" x="515" y="274" width="180" height="179">
<path d="M635.215 447.449C629.848 449.409 624.307 450.852 618.665 451.759C613.049 452.688 607.354 453.05 601.665 452.839C598.225 452.689 593.665 452.179 590.235 451.729C588.375 451.489 585.935 450.959 584.125 450.519C582.315 450.079 579.635 449.429 577.765 448.779C574.285 447.569 569.685 445.779 566.315 444.309C556.884 439.887 548.303 433.842 540.965 426.449C539.545 424.949 537.615 422.979 536.315 421.379C534.395 419.039 531.905 415.859 530.235 413.379C529.055 411.589 527.505 409.179 526.505 407.289C524.955 404.379 523.045 400.409 521.725 397.379C521.298 396.328 520.924 395.257 520.605 394.169C511.935 364.919 542.545 327.449 588.855 310.519C542.575 327.429 511.965 364.919 520.635 394.089C520.955 395.177 521.328 396.248 521.755 397.299C521.005 395.229 519.905 392.499 519.255 390.389C518.475 387.839 517.645 384.389 516.995 381.779C516.298 378.712 515.81 375.602 515.535 372.469C515.161 368.959 515.01 365.428 515.085 361.899C515.195 359.829 515.245 357.049 515.475 354.979C515.795 352.079 516.305 348.209 516.925 345.359C518.835 336.093 522.211 327.191 526.925 318.989C531.386 311.213 536.988 304.151 543.545 298.039C549.449 292.513 556.084 287.826 563.265 284.109C566.696 282.339 570.233 280.782 573.855 279.449C575.505 278.909 577.675 278.079 579.355 277.639C586.825 275.639 586.825 275.639 590.355 275.129C592.035 274.869 594.275 274.519 595.965 274.409C599.335 274.199 603.855 274.049 607.235 274.049C611.128 274.179 615.009 274.549 618.855 275.159C623.077 275.829 627.242 276.815 631.315 278.109C635.216 279.379 639.042 280.868 642.775 282.569C649.447 285.717 655.704 289.677 661.405 294.359C666.945 299.119 666.945 299.119 672.755 305.529C674.993 308.029 677.026 310.704 678.835 313.529C681.389 317.585 683.726 321.774 685.835 326.079C687.565 329.955 689.058 333.932 690.305 337.989C690.925 340.089 691.665 342.909 692.095 345.049C692.645 347.819 693.165 351.559 693.545 354.359C693.985 357.86 694.136 361.392 693.995 364.919C693.815 369.049 693.315 374.549 692.695 378.639C692.213 381.797 691.498 384.916 690.555 387.969C689.945 389.859 689.205 392.399 688.495 394.259C687.575 396.679 686.225 399.869 685.115 402.209C683.086 406.475 680.711 410.569 678.015 414.449C675.531 418.065 672.77 421.482 669.755 424.669C666.932 427.684 663.898 430.495 660.675 433.079C657.593 435.564 654.349 437.842 650.965 439.899C649.425 440.769 647.425 442.019 645.825 442.779C642.705 444.279 638.495 446.189 635.255 447.429L635.215 447.449Z" fill="white"/>
</mask>
<g mask="url(#mask3_75_1425)">
<path d="M635.135 447.789C634.515 447.789 632.785 446.419 625.985 430.859C587.985 442.659 548.735 433.149 528.985 408.859C524.929 404.77 521.941 399.746 520.285 394.229L520.925 393.999C523.049 399.19 525.926 404.039 529.465 408.389C532.96 411.905 537.015 414.815 541.465 416.999C561.525 427.089 590.945 426.739 620.145 416.079L620.455 415.959L620.575 416.269C622.835 421.799 624.745 426.339 626.375 430.069C627.955 429.569 629.529 429.032 631.095 428.459L631.435 428.339L631.535 428.679C637.035 447.199 635.895 447.599 635.345 447.789C635.276 447.802 635.205 447.802 635.135 447.789ZM626.635 430.649C632.915 445.029 634.635 446.879 635.095 447.089C635.295 446.629 635.375 443.999 630.985 429.179C629.565 429.699 628.115 430.189 626.635 430.649ZM533.335 412.649C553.865 433.549 590.335 441.169 625.715 430.189C624.115 426.519 622.245 422.089 620.065 416.739C590.785 427.359 561.305 427.659 541.155 417.529C538.4 416.169 535.782 414.548 533.335 412.689V412.649Z" stroke="#ee710b" stroke-width="0.1" stroke-miterlimit="10"/>
<path d="M602.635 452.729C574.165 452.729 548.955 439.399 539.695 416.729L540.315 416.469C552.945 447.379 595.585 460.719 635.315 446.189L635.555 446.819C625.011 450.694 613.869 452.694 602.635 452.729Z" stroke="#ee710b" stroke-width="0.1" stroke-miterlimit="10"/>
<path d="M570.945 443.319C568.526 443.332 566.113 443.044 563.765 442.459C554.765 440.189 548.315 433.459 545.195 422.959L545.845 422.769C548.845 433.009 555.145 439.589 563.935 441.769C579.255 445.619 600.215 436.019 620.015 416.079L620.495 416.549C603.445 433.759 585.505 443.319 570.945 443.319Z" stroke="#ee710b" stroke-width="0.1" stroke-miterlimit="10"/>
<path d="M598.255 452.979C592.915 452.979 588.255 446.899 584.875 435.389L585.525 435.199C588.855 446.389 593.245 452.299 598.255 452.299H598.335C605.815 452.209 613.885 438.729 619.925 416.299L620.575 416.479C614.355 439.599 606.255 452.919 598.345 453.019L598.255 452.979Z" stroke="#ee710b" stroke-width="0.1" stroke-miterlimit="10"/>
<path d="M635.135 447.789C634.355 447.789 631.855 445.649 619.945 416.479L619.805 416.159L620.135 416.039C666.255 399.189 696.765 361.889 688.135 332.879L688.775 332.659C694.865 347.579 694.345 363.919 687.265 379.929C677.685 401.589 657.405 419.439 631.605 428.929C637.005 447.149 635.865 447.549 635.325 447.739C635.265 447.766 635.201 447.783 635.135 447.789ZM620.695 416.549C631.905 443.959 634.565 446.829 635.095 447.089C635.295 446.629 635.375 443.959 630.885 428.829L630.795 428.529L631.085 428.419C656.855 419.009 677.085 401.229 686.655 379.649C692.885 365.569 693.985 351.229 689.915 337.849C693.905 366.239 664.285 400.519 620.695 416.549Z" stroke="#ee710b" stroke-width="0.1" stroke-miterlimit="10"/>
<path d="M635.605 446.809L635.365 446.179C657.605 438.059 675.075 422.719 683.365 404.099C689.365 390.449 689.855 376.509 684.665 363.789L685.285 363.539C690.545 376.429 690.095 390.539 683.985 404.379C675.625 423.159 658.005 438.629 635.605 446.809Z" stroke="#ee710b" stroke-width="0.1" stroke-miterlimit="10"/>
<path d="M656.965 430.609C647.655 430.609 634.725 425.799 620.075 416.609L620.435 416.039C641.345 429.119 658.625 433.279 666.665 427.149C671.855 423.249 672.855 415.389 669.605 404.449L670.255 404.249C673.585 415.489 672.495 423.599 667.075 427.719C664.535 429.659 661.105 430.609 656.965 430.609Z" stroke="#ee710b" stroke-width="0.1" stroke-miterlimit="10"/>
<path d="M630.695 417.089C627.282 417.089 623.792 416.956 620.225 416.689V416.019C649.525 418.229 673.785 411.179 685.095 397.159C691.345 389.409 693.095 380.029 690.095 370.019L690.745 369.829C693.745 380.059 692.015 389.659 685.625 397.579C675.605 410.059 655.475 417.089 630.695 417.089Z" stroke="#ee710b" stroke-width="0.1" stroke-miterlimit="10"/>
<path d="M620.065 416.779L619.945 416.479C605.235 380.479 586.215 327.419 577.545 298.239L577.455 297.929L577.755 297.829C624.205 280.829 674.015 296.489 688.755 332.659C697.485 362.029 666.755 399.659 620.335 416.659L620.065 416.779ZM578.285 298.349C586.965 327.499 605.815 380.059 620.445 415.919C666.385 399.029 696.745 361.829 688.145 332.919C673.555 297.149 624.315 281.689 578.285 298.349Z" stroke="#ee710b" stroke-width="0.1" stroke-miterlimit="10"/>
<path d="M684.615 363.789C671.985 332.879 629.335 319.549 589.555 334.069L589.325 333.439C629.455 318.779 672.475 332.289 685.235 363.539L684.615 363.789Z" stroke="#ee710b" stroke-width="0.1" stroke-miterlimit="10"/>
<path d="M620.495 416.589L620.015 416.119C652.475 383.429 671.865 333.179 663.225 304.119L663.875 303.929C672.575 333.199 653.115 383.749 620.495 416.589Z" stroke="#ee710b" stroke-width="0.1" stroke-miterlimit="10"/>
<path d="M620.575 416.449L619.925 416.269C630.575 376.709 632.205 320.819 623.555 291.689L624.205 291.499C632.855 320.719 631.255 376.769 620.575 416.449Z" stroke="#ee710b" stroke-width="0.1" stroke-miterlimit="10"/>
<path d="M576.125 424.959C562.995 424.959 550.965 422.499 541.125 417.569C530.405 412.179 523.195 404.089 520.245 394.189C514.165 379.299 514.685 362.959 521.765 346.949C531.385 325.199 551.765 307.299 577.765 297.829L578.105 297.699L578.205 298.049C586.855 327.209 605.855 380.229 620.565 416.229L620.695 416.549L620.365 416.669C606.21 421.973 591.241 424.778 576.125 424.959ZM577.645 298.579C552.045 308.029 531.925 325.739 522.415 347.219C515.415 363.059 514.895 379.219 520.915 393.959C523.815 403.719 530.915 411.659 541.455 416.959C561.455 427.009 590.705 426.699 619.805 416.159C605.175 380.289 586.335 327.749 577.645 298.579Z" stroke="#ee710b" stroke-width="0.1" stroke-miterlimit="10"/>
<path d="M539.695 416.719C534.425 403.819 534.875 389.719 540.995 375.869C549.305 357.089 566.925 341.619 589.325 333.439L589.555 334.069C567.325 342.189 549.845 357.529 541.615 376.149C535.615 389.799 535.125 403.739 540.315 416.459L539.695 416.719Z" stroke="#ee710b" stroke-width="0.1" stroke-miterlimit="10"/>
<path d="M620.075 416.639C583.955 394.039 547.505 351.869 538.825 322.639L539.475 322.449C548.115 351.559 584.475 393.569 620.475 416.089L620.075 416.639Z" stroke="#ee710b" stroke-width="0.1" stroke-miterlimit="10"/>
<path d="M620.225 416.689C572.715 413.099 526.985 386.349 518.225 357.049L518.875 356.849C527.505 385.909 572.975 412.449 620.225 416.019V416.689Z" stroke="#ee710b" stroke-width="0.1" stroke-miterlimit="10"/>
<path d="M593.155 435.909C560.155 435.909 531.015 420.479 520.295 394.219C511.585 364.869 542.295 327.219 588.725 310.219L589.035 310.109L589.155 310.409C603.855 346.449 622.855 399.449 631.525 428.639L631.615 428.939L631.325 429.049C619.1 433.545 606.181 435.867 593.155 435.909ZM520.925 393.979C535.535 429.729 584.765 445.189 630.795 428.529C622.115 399.379 603.265 346.819 588.635 310.949C542.695 327.849 512.345 365.039 520.925 393.979Z" stroke="#ee710b" stroke-width="0.1" stroke-miterlimit="10"/>
<path d="M586.785 399.359C558.315 399.359 533.105 386.029 523.845 363.359L524.465 363.109C537.095 394.029 579.745 407.349 619.465 392.829L619.705 393.459C609.16 397.331 598.019 399.328 586.785 399.359Z" stroke="#ee710b" stroke-width="0.1" stroke-miterlimit="10"/>
<path d="M585.235 354.449C568.545 354.449 553.765 346.629 548.325 333.329L548.955 333.069C556.305 351.069 581.135 358.809 604.305 350.349L604.535 350.989C598.353 353.259 591.821 354.43 585.235 354.449Z" stroke="#ee710b" stroke-width="0.1" stroke-miterlimit="10"/>
<path d="M545.195 422.959C536.505 393.679 555.965 343.129 588.585 310.289L589.065 310.759C556.595 343.449 537.215 393.699 545.845 422.759L545.195 422.959Z" stroke="#ee710b" stroke-width="0.1" stroke-miterlimit="10"/>
<path d="M584.855 435.389C576.175 406.159 577.855 350.109 588.475 310.439L589.135 310.609C578.485 350.179 576.855 406.069 585.505 435.199L584.855 435.389Z" stroke="#ee710b" stroke-width="0.1" stroke-miterlimit="10"/>
<path d="M630.985 429.179L630.885 428.829C622.225 399.669 603.215 346.649 588.505 310.649L588.375 310.329L588.705 310.209C618.095 299.469 647.705 299.149 667.915 309.309C678.635 314.699 685.855 322.789 688.795 332.689C694.875 347.579 694.355 363.919 687.275 379.929C677.655 401.669 657.275 419.579 631.325 429.049L630.985 429.179ZM589.265 310.719C603.905 346.589 622.735 399.129 631.425 428.299C657.035 418.849 677.155 401.139 686.655 379.649C693.655 363.819 694.185 347.649 688.155 332.909C685.265 323.159 678.155 315.219 667.615 309.909C647.635 299.869 618.375 300.169 589.265 310.719Z" stroke="#ee710b" stroke-width="0.1" stroke-miterlimit="10"/>
<path d="M619.755 393.449L619.515 392.819C641.755 384.689 659.225 369.359 667.515 350.739C673.515 337.089 674.005 323.139 668.815 310.429L669.435 310.169C674.695 323.059 674.245 337.169 668.135 351.019C659.775 369.789 642.155 385.259 619.755 393.449Z" stroke="#ee710b" stroke-width="0.1" stroke-miterlimit="10"/>
<path d="M604.535 351.009L604.305 350.369C617.255 345.639 627.435 336.709 632.235 325.869C635.745 317.929 636.005 309.869 632.985 302.429L633.615 302.169C636.705 309.739 636.445 318.029 632.855 326.169C627.985 337.149 617.665 346.219 604.535 351.009Z" stroke="#ee710b" stroke-width="0.1" stroke-miterlimit="10"/>
<path d="M669.605 404.449C660.955 375.339 624.605 333.329 588.605 310.809L588.965 310.239C625.075 332.829 661.525 375.009 670.215 404.239L669.605 404.449Z" stroke="#ee710b" stroke-width="0.1" stroke-miterlimit="10"/>
<path d="M690.145 370.019C681.525 341.019 636.055 314.429 588.795 310.859L588.855 310.189C636.365 313.769 682.095 340.529 690.795 369.829L690.145 370.019Z" stroke="#ee710b" stroke-width="0.1" stroke-miterlimit="10"/>
<path d="M688.165 332.909C686.031 327.722 683.15 322.874 679.615 318.519C676.118 315.007 672.063 312.097 667.615 309.909C647.615 299.829 618.155 300.169 588.935 310.839L588.635 310.949L588.515 310.649C586.255 305.119 584.335 300.579 582.715 296.849C581.135 297.349 579.565 297.849 577.985 298.459L577.645 298.579L577.545 298.239C572.045 279.719 573.195 279.319 573.745 279.119C574.295 278.919 575.435 278.489 583.095 296.019C621.095 284.209 660.355 293.729 680.095 318.019C684.147 322.109 687.132 327.134 688.785 332.649L688.165 332.909ZM632.945 301.909C646.085 301.909 658.105 304.369 667.945 309.299C670.705 310.672 673.327 312.306 675.775 314.179C655.245 293.289 618.775 285.669 583.395 296.639C584.985 300.309 586.855 304.739 589.045 310.089C603.099 304.859 617.951 302.095 632.945 301.919V301.909ZM573.945 279.779C573.745 280.239 573.665 282.869 578.055 297.689C579.495 297.169 580.955 296.689 582.405 296.219C576.155 281.849 574.405 279.999 573.985 279.789L573.945 279.779Z" stroke="#ee710b" stroke-width="0.1" stroke-miterlimit="10"/>
<path d="M668.765 310.449C656.135 279.529 613.495 266.199 573.705 280.729L573.475 280.099C613.595 265.439 656.625 278.949 669.385 310.189L668.765 310.449Z" stroke="#ee710b" stroke-width="0.1" stroke-miterlimit="10"/>
<path d="M632.995 302.449C625.645 284.449 600.805 276.709 577.635 285.169L577.405 284.529C600.905 275.939 626.125 283.869 633.615 302.189L632.995 302.449Z" stroke="#ee710b" stroke-width="0.1" stroke-miterlimit="10"/>
<path d="M589.065 310.759L588.585 310.289C608.585 290.169 629.785 280.499 645.305 284.419C654.305 286.689 660.765 293.419 663.875 303.919L663.225 304.109C660.225 293.869 653.935 287.279 645.145 285.109C629.855 281.209 608.855 290.819 589.065 310.759Z" stroke="#ee710b" stroke-width="0.1" stroke-miterlimit="10"/>
<path d="M589.155 310.609L588.495 310.439C594.715 287.319 602.815 273.999 610.725 273.899H610.855C616.195 273.899 620.855 279.979 624.245 291.489L623.595 291.679C620.225 280.449 615.855 274.579 610.855 274.579H610.775C603.265 274.669 595.195 288.139 589.155 310.609Z" stroke="#ee710b" stroke-width="0.1" stroke-miterlimit="10"/>
<path d="M520.295 394.219C514.195 379.299 514.715 362.959 521.795 346.949C531.385 325.289 551.655 307.439 577.455 297.949C572.055 279.739 573.195 279.339 573.745 279.139C574.295 278.939 576.015 278.289 589.135 310.419L589.265 310.739L588.935 310.859C542.825 327.699 512.305 365.009 520.935 394.019L520.295 394.219ZM573.985 279.789C573.785 280.249 573.705 282.919 578.195 298.049L578.285 298.349L577.985 298.459C552.215 307.869 531.985 325.639 522.415 347.219C516.185 361.309 515.085 375.649 519.155 389.029C515.155 360.629 544.795 326.359 588.375 310.329C577.175 282.919 574.505 280.049 573.985 279.789Z" stroke="#ee710b" stroke-width="0.1" stroke-miterlimit="10"/>
<path d="M523.855 363.339C518.585 350.449 519.035 336.339 525.155 322.499C533.465 303.719 551.075 288.249 573.485 280.069L573.715 280.699C551.485 288.819 534.005 304.159 525.775 322.779C519.775 336.429 519.285 350.369 524.475 363.089L523.855 363.339Z" stroke="#ee710b" stroke-width="0.1" stroke-miterlimit="10"/>
<path d="M548.325 333.349C545.235 325.779 545.505 317.489 549.095 309.349C553.965 298.349 564.285 289.279 577.405 284.479L577.635 285.119C564.685 289.849 554.505 298.779 549.715 309.619C546.195 317.559 545.935 325.669 548.955 333.059L548.325 333.349Z" stroke="#ee710b" stroke-width="0.1" stroke-miterlimit="10"/>
<path d="M538.855 322.619C535.515 311.389 536.615 303.269 542.025 299.159C550.315 292.859 567.875 297.009 589.025 310.239L588.665 310.809C567.755 297.729 550.475 293.579 542.425 299.689C537.255 303.629 536.245 311.489 539.495 322.429L538.855 322.619Z" stroke="#ee710b" stroke-width="0.1" stroke-miterlimit="10"/>
<path d="M518.275 357.049C515.275 346.819 517.015 337.219 523.405 329.299C534.855 315.099 559.305 307.959 588.855 310.189L588.795 310.859C559.475 308.649 535.235 315.699 523.925 329.719C517.685 337.469 515.925 346.849 518.925 356.849L518.275 357.049Z" stroke="#ee710b" stroke-width="0.1" stroke-miterlimit="10"/>
<path d="M604.705 453.239C603.475 453.239 602.435 453.239 601.625 453.169C598.705 453.039 594.415 452.619 590.165 452.059C587.975 451.769 585.165 451.109 584.025 450.839C582.365 450.439 579.595 449.769 577.635 449.089C573.765 447.739 569.255 445.979 566.155 444.609C556.688 440.143 548.077 434.051 540.715 426.609L540.015 425.879C538.675 424.479 537.165 422.879 536.015 421.529C534.525 419.709 531.765 416.249 529.915 413.449C528.195 410.839 526.915 408.839 526.165 407.329C524.615 404.409 522.685 400.419 521.385 397.389C521.125 396.749 520.875 396.089 520.655 395.389C520.655 395.329 520.605 395.259 520.575 395.189C519.955 393.559 519.315 391.869 518.875 390.429C518.215 388.269 517.525 385.499 516.925 383.069L516.605 381.799C515.908 378.715 515.42 375.588 515.145 372.439C514.759 368.916 514.605 365.372 514.685 361.829C514.685 361.239 514.745 360.599 514.775 359.939C514.835 358.269 514.915 356.379 515.075 354.879C515.385 352.099 515.895 348.159 516.535 345.219C518.438 335.926 521.814 326.996 526.535 318.769C528.859 314.737 531.483 310.886 534.385 307.249C537.096 303.87 540.043 300.689 543.205 297.729C549.14 292.177 555.809 287.467 563.025 283.729C566.477 281.954 570.034 280.391 573.675 279.049L575.355 278.469C576.665 278.009 578.025 277.539 579.185 277.229C586.675 275.279 586.675 275.279 590.275 274.719C591.955 274.459 594.215 274.109 595.915 273.999C599.335 273.779 603.795 273.629 607.075 273.629H607.205C611.097 273.773 614.977 274.147 618.825 274.749C623.066 275.442 627.251 276.445 631.345 277.749C635.261 279.025 639.101 280.524 642.845 282.239C649.551 285.386 655.837 289.361 661.555 294.069C667.115 298.849 667.115 298.849 672.935 305.269C675.189 307.801 677.236 310.509 679.055 313.369C681.613 317.437 683.95 321.639 686.055 325.959C687.791 329.837 689.287 333.818 690.535 337.879C691.125 339.879 691.895 342.769 692.345 345.009C692.915 347.889 693.475 351.919 693.805 354.329C694.244 357.854 694.394 361.409 694.255 364.959C694.065 369.269 693.535 374.799 692.955 378.709C692.469 381.888 691.747 385.027 690.795 388.099C690.615 388.649 690.425 389.249 690.235 389.879C689.765 391.369 689.235 393.069 688.735 394.389C687.735 397.029 686.395 400.159 685.345 402.389C683.293 406.653 680.902 410.747 678.195 414.629C675.698 418.252 672.926 421.679 669.905 424.879C664.336 430.806 657.988 435.949 651.035 440.169L649.495 441.059C648.265 441.779 646.985 442.529 645.875 443.059C644.415 443.759 639.345 446.159 635.275 447.719L635.115 447.419L635.235 447.729C625.422 451.324 615.057 453.181 604.605 453.219L604.705 453.239ZM522.045 397.169C523.345 400.169 525.255 404.169 526.795 407.049C527.585 408.529 528.795 410.569 530.515 413.109C532.345 415.889 535.095 419.329 536.575 421.109C537.665 422.449 539.175 424.029 540.505 425.429L541.205 426.159C544.865 429.864 548.851 433.231 553.115 436.219C557.319 439.183 561.773 441.776 566.425 443.969C569.515 445.329 573.995 447.079 577.855 448.419C579.785 449.089 582.535 449.759 584.185 450.149C585.285 450.419 588.095 451.069 590.255 451.359C594.495 451.919 598.755 452.359 601.655 452.459C607.344 452.674 613.039 452.315 618.655 451.389C624.276 450.483 629.798 449.043 635.145 447.089C637.905 446.029 641.835 444.299 645.695 442.449C646.775 441.929 648.045 441.189 649.265 440.449L650.815 439.549C654.183 437.499 657.413 435.231 660.485 432.759C663.677 430.182 666.684 427.385 669.485 424.389C672.486 421.21 675.241 417.806 677.725 414.209C680.419 410.371 682.803 406.325 684.855 402.109C685.855 399.909 687.225 396.799 688.225 394.179C688.725 392.879 689.225 391.179 689.715 389.699C689.915 389.079 690.105 388.469 690.285 387.919C691.222 384.882 691.934 381.78 692.415 378.639C692.995 374.749 693.515 369.249 693.715 364.959C693.844 361.449 693.694 357.935 693.265 354.449C692.935 352.049 692.375 348.029 691.815 345.169C691.375 342.949 690.605 340.079 690.025 338.169C688.789 334.127 687.303 330.166 685.575 326.309C683.472 322.011 681.135 317.832 678.575 313.789C676.792 310.966 674.786 308.291 672.575 305.789C666.785 299.399 666.785 299.399 661.255 294.649C655.581 289.986 649.35 286.046 642.705 282.919C638.967 281.21 635.134 279.718 631.225 278.449C627.182 277.144 623.047 276.141 618.855 275.449C615.038 274.847 611.187 274.476 607.325 274.339H607.195C603.935 274.339 599.485 274.479 596.075 274.699C594.405 274.809 592.165 275.159 590.525 275.409C586.925 275.969 586.925 275.969 579.525 277.919C578.395 278.209 577.045 278.689 575.745 279.139L574.055 279.719C570.408 281.075 566.848 282.655 563.395 284.449C556.246 288.154 549.638 292.82 543.755 298.319C537.221 304.408 531.641 311.447 527.205 319.199C522.493 327.363 519.117 336.228 517.205 345.459C516.565 348.379 516.065 352.289 515.755 355.059C515.595 356.529 515.525 358.409 515.455 360.059C515.455 360.729 515.455 361.369 515.375 361.959C515.297 365.462 515.458 368.967 515.855 372.449C516.131 375.564 516.612 378.657 517.295 381.709L517.615 382.979C518.095 384.899 518.615 386.979 519.145 388.879C518.921 387.205 518.808 385.518 518.805 383.829C518.805 356.499 547.585 325.239 588.715 310.219L588.945 310.849C548.085 325.769 519.475 356.759 519.475 383.799C519.467 387.255 519.959 390.694 520.935 394.009C521.055 394.419 521.185 394.829 521.325 395.229C521.575 395.909 521.855 396.569 522.045 397.169Z" stroke="#ee710b" stroke-width="0.1" stroke-miterlimit="10"/>
</g>
<path d="M635.215 447.449C629.848 449.409 624.307 450.852 618.665 451.759C613.049 452.688 607.354 453.05 601.665 452.839C598.225 452.689 593.665 452.179 590.235 451.729C588.375 451.489 585.935 450.959 584.125 450.519C582.315 450.079 579.635 449.429 577.765 448.779C574.285 447.569 569.685 445.779 566.315 444.309C556.884 439.887 548.303 433.842 540.965 426.449C539.545 424.949 537.615 422.979 536.315 421.379C534.395 419.039 531.905 415.859 530.235 413.379C529.055 411.589 527.505 409.179 526.505 407.289C524.955 404.379 523.045 400.409 521.725 397.379C521.298 396.328 520.924 395.257 520.605 394.169C511.935 364.919 542.545 327.449 588.855 310.519C542.575 327.429 511.965 364.919 520.635 394.089C520.955 395.177 521.328 396.248 521.755 397.299C521.005 395.229 519.905 392.499 519.255 390.389C518.475 387.839 517.645 384.389 516.995 381.779C516.298 378.712 515.81 375.602 515.535 372.469C515.161 368.959 515.01 365.428 515.085 361.899C515.195 359.829 515.245 357.049 515.475 354.979C515.795 352.079 516.305 348.209 516.925 345.359C518.835 336.093 522.211 327.191 526.925 318.989C531.386 311.213 536.988 304.151 543.545 298.039C549.449 292.513 556.084 287.826 563.265 284.109C566.696 282.339 570.233 280.782 573.855 279.449C575.505 278.909 577.675 278.079 579.355 277.639C586.825 275.639 586.825 275.639 590.355 275.129C592.035 274.869 594.275 274.519 595.965 274.409C599.335 274.199 603.855 274.049 607.235 274.049C611.128 274.179 615.009 274.549 618.855 275.159C623.077 275.829 627.242 276.815 631.315 278.109C635.216 279.379 639.042 280.868 642.775 282.569C649.447 285.717 655.704 289.677 661.405 294.359C666.945 299.119 666.945 299.119 672.755 305.529C674.993 308.029 677.026 310.704 678.835 313.529C681.389 317.585 683.726 321.774 685.835 326.079C687.565 329.955 689.058 333.932 690.305 337.989C690.925 340.089 691.665 342.909 692.095 345.049C692.645 347.819 693.165 351.559 693.545 354.359C693.985 357.86 694.136 361.392 693.995 364.919C693.815 369.049 693.315 374.549 692.695 378.639C692.213 381.797 691.498 384.916 690.555 387.969C689.945 389.859 689.205 392.399 688.495 394.259C687.575 396.679 686.225 399.869 685.115 402.209C683.086 406.475 680.711 410.569 678.015 414.449C675.531 418.065 672.77 421.482 669.755 424.669C666.932 427.684 663.898 430.495 660.675 433.079C657.593 435.564 654.349 437.843 650.965 439.899C649.425 440.769 647.425 442.019 645.825 442.779C642.705 444.279 638.495 446.189 635.255 447.429L635.215 447.449Z" stroke="#ee710b" stroke-width="0.1" stroke-miterlimit="10"/>
</svg>
