<svg width="558" height="722" viewBox="0 0 558 722" fill="none" xmlns="http://www.w3.org/2000/svg">
<g opacity="0.5">
<path d="M-7.14594 477.988C207.844 400.968 363.362 286.149 340.213 221.532C317.064 156.916 124.015 166.971 -90.9752 243.99C-305.965 321.01 -461.483 435.829 -438.334 500.446C-415.185 565.062 -222.136 555.008 -7.14594 477.988Z" stroke="#875e4d" stroke-opacity="0.5" stroke-width="0.5" stroke-miterlimit="10" stroke-linecap="round" stroke-dasharray="12 12"/>
<path d="M9.93966 525.68C312.558 417.267 531.464 255.647 498.879 164.691C466.294 73.7346 194.558 87.8859 -108.061 196.299C-410.679 304.711 -629.585 466.332 -597 557.288C-564.415 648.244 -292.679 634.092 9.93966 525.68Z" stroke="#875e4d" stroke-opacity="0.5" stroke-width="0.5" stroke-miterlimit="10"/>
<path d="M-21.2163 438.712C121.587 387.553 224.885 311.283 209.508 268.357C194.13 225.432 65.8986 232.107 -76.9046 283.266C-219.708 334.425 -323.007 410.696 -307.629 453.621C-292.251 496.546 -164.02 489.871 -21.2163 438.712Z" stroke="#875e4d" stroke-opacity="0.5" stroke-width="0.5" stroke-miterlimit="10"/>
</g>
</svg>
