<svg width="142" height="105" viewBox="0 0 142 105" fill="none" xmlns="http://www.w3.org/2000/svg">
<g clip-path="url(#clip0_128_1948)">
<path d="M99.7409 24.1328L91.6465 25.6911L92.1032 33.1766L88.7512 34.4532L90.5991 37.9888L86.3314 46.4653L89.9093 53.9547L88.1973 57.8959L91.6968 63.3201L87.8763 65.8247L91.7038 71.3917L88.7198 73.1674L91.9824 81.2343L85.3506 85.4172C85.3506 85.4172 87.12 88.1062 91.6481 89.1937C96.1763 90.282 131.623 58.2812 131.623 58.2812L99.7409 24.1328Z" fill="#D37972"/>
<path d="M92.1039 33.1777L92.1008 34.1013L89.5719 36.0228L88.752 34.4543L92.1039 33.1777Z" fill="#E29086"/>
<path d="M90.5995 37.9893L91.0538 38.7072L86.8387 47.5281L86.3311 46.4665L90.5995 37.9893Z" fill="#E29086"/>
<path d="M89.9093 53.9561L90.3409 54.7941L88.7143 58.6976L88.1973 57.8973L89.9093 53.9561Z" fill="#E29086"/>
<path d="M91.6964 63.3213L92.2825 64.1687L88.7242 67.0593L87.876 65.8251L91.6964 63.3213Z" fill="#E29086"/>
<path d="M91.7029 71.3926L92.1737 72.0737L89.2839 74.5649L88.7197 73.1682L91.7029 71.3926Z" fill="#E29086"/>
<path d="M92.3355 81.889L86.9387 86.3716L86.5519 86.6925C85.7194 85.9793 85.3506 85.4191 85.3506 85.4191L91.9824 81.2354L92.3355 81.889Z" fill="#E29086"/>
<path d="M95.1426 85.8887C94.9582 89.4502 92.6906 95.0745 91.5387 97.7273C91.2265 98.4461 91.7247 99.2566 92.507 99.3029L103.361 99.9463C103.815 99.973 104.241 99.725 104.441 99.317C106.15 95.8473 108.218 88.1563 108.218 88.1563L95.1426 85.8887Z" fill="#F2A89B"/>
<path d="M99.7416 24.1328C119.783 28.0238 132.073 36.877 138.244 47.235C144.415 57.593 142.147 78.9902 128.248 88.2192C116.133 96.2633 91.6481 89.1945 91.6481 89.1945L89.6104 86.0967L95.7564 79.1369L93.9141 77.6861L98.5804 69.0425L96.4289 66.8063L98.0225 64.636L94.0224 54.9723L103.933 48.3351L102.719 43.6429L108.913 39.5675L99.7416 24.1328Z" fill="#F2A89B"/>
<path d="M128.247 88.2207C116.132 96.2648 91.6475 89.196 91.6475 89.196" stroke="#D37972" stroke-width="0.392321" stroke-miterlimit="10" stroke-linecap="round" stroke-linejoin="round"/>
<path d="M99.3838 24.2019L107.058 40.7884L108.912 39.5683L99.7416 24.1328L99.3838 24.2019Z" fill="#E29086"/>
<path d="M102.717 43.6445L102.151 44.0494L101.417 50.0205L103.932 48.3367L102.717 43.6445Z" fill="#E29086"/>
<path d="M94.0217 54.9736L93.5273 55.311L96.9131 66.1469L98.0218 64.6373L94.0217 54.9736Z" fill="#E29086"/>
<path d="M96.4283 66.8086L96.1553 67.2731L97.3825 71.263L98.5798 69.044L96.4283 66.8086Z" fill="#E29086"/>
<path d="M93.9142 77.6875L93.7031 78.174L95.1045 79.8774L95.7565 79.1391L93.9142 77.6875Z" fill="#E29086"/>
<path d="M89.6098 86.0977L89.0166 86.6642L91.6475 89.1954L89.6098 86.0977Z" fill="#E29086"/>
<path d="M102.503 86.3887C102.319 89.9502 100.051 95.5745 98.8991 98.2273C98.5868 98.9461 99.0851 99.7566 99.8673 99.8029L110.721 100.446C111.176 100.473 111.601 100.225 111.802 99.817C113.51 96.3473 115.578 88.6563 115.578 88.6563L102.503 86.3887Z" fill="#F2A89B"/>
<path d="M102.503 86.3887C102.319 89.9502 100.051 95.5745 98.8991 98.2273C98.5868 98.9461 99.0851 99.7566 99.8673 99.8029L110.721 100.446" stroke="#D37972" stroke-width="0.392321" stroke-miterlimit="10" stroke-linecap="round" stroke-linejoin="round"/>
<path d="M61.5238 16.0497L60.5783 17.7093C60.1334 18.49 59.4061 19.0541 58.4841 19.4025C58.3437 19.4559 58.1977 19.5045 58.0478 19.5477C57.7622 19.6301 57.4617 19.6936 57.1479 19.7391C56.7775 19.7933 56.3883 19.8207 55.985 19.8239C55.9003 19.8239 55.8132 19.8239 55.7269 19.8215C55.6123 19.8192 55.497 19.8152 55.3801 19.809C55.0113 19.7886 54.6323 19.7485 54.2455 19.6889C54.1388 19.6724 54.0305 19.6544 53.923 19.634C53.6892 19.5924 53.4538 19.543 53.216 19.4857C52.8982 19.4104 52.5765 19.3217 52.2525 19.2205C52.1795 19.1977 52.1065 19.1742 52.0336 19.1499C51.9355 19.1185 51.8358 19.084 51.7378 19.0494C51.4106 18.9341 51.0818 18.8062 50.7523 18.6657C50.6581 18.6257 50.5639 18.5841 50.4698 18.5418C50.2619 18.4484 50.0539 18.3503 49.8468 18.2467C49.5612 18.1039 49.2763 17.9517 48.9923 17.7901C48.9272 17.7524 48.8621 17.7148 48.7969 17.6771C48.7083 17.6245 48.6204 17.5727 48.5341 17.5194C48.4054 17.4417 48.2783 17.3617 48.1535 17.2809C48.0672 17.2251 47.9809 17.1679 47.8969 17.1114C47.7039 16.9811 47.5148 16.8493 47.3312 16.7143C47.0644 16.519 46.8079 16.3173 46.5607 16.1117C46.5019 16.0631 46.4422 16.0137 46.3849 15.9634C46.3049 15.8952 46.2264 15.8261 46.1488 15.7579C46.0334 15.6543 45.9204 15.5499 45.8098 15.4456C45.7337 15.3718 45.6568 15.2988 45.583 15.2243C45.4104 15.0533 45.2449 14.8806 45.0864 14.7057C44.8494 14.4452 44.6281 14.18 44.4241 13.914C44.3739 13.848 44.3245 13.7829 44.2766 13.717C44.2091 13.6252 44.1432 13.5334 44.0805 13.4416C43.9839 13.3004 43.8914 13.1599 43.805 13.0187C43.7423 12.9167 43.6819 12.8162 43.6238 12.715C43.4849 12.4694 43.3609 12.2246 43.2511 11.9806C43.0667 11.5694 42.9262 11.1607 42.8321 10.7605C42.8062 10.6483 42.7834 10.5361 42.7646 10.4247C42.7348 10.252 42.7144 10.0818 42.7026 9.91386C42.6508 9.14099 42.7944 8.41676 43.1577 7.77963L44.1032 6.12012L61.5238 16.0497Z" fill="#FF9C39"/>
<path d="M51.3693 15.5721L49.8447 18.2462C49.5591 18.1034 49.2743 17.9512 48.9903 17.7895L50.5282 15.0919L51.3693 15.5721ZM52.5062 15.5863L50.751 18.6652C50.6568 18.6252 50.5627 18.5836 50.4685 18.5412L52.2395 15.434L52.5062 15.5863ZM56.0348 16.5467L54.2442 19.6876C54.1375 19.6711 54.0292 19.6531 53.9217 19.6327L55.768 16.3937L56.0348 16.5467ZM54.1328 15.4631L52.0315 19.1485C51.9335 19.1171 51.8338 19.0826 51.7357 19.0481L53.866 15.3101L54.1328 15.4631ZM59.5633 17.5071L58.4828 19.402C58.3424 19.4553 58.1965 19.504 58.0466 19.5471L59.2965 17.3548L59.5633 17.5071ZM57.6621 16.4235L55.7256 19.821C55.6111 19.8186 55.4957 19.8147 55.3788 19.8084L57.3953 16.2713L57.6621 16.4235ZM48.7384 14.2422L47.33 16.713C47.0632 16.5176 46.8066 16.316 46.5594 16.1104L47.8973 13.7628L48.7384 14.2422ZM49.8196 14.3544L48.1523 17.2803C48.066 17.2246 47.9796 17.1673 47.8957 17.1108L49.5536 14.2029L49.8196 14.3544ZM46.5265 12.1778L45.0859 14.7051C44.8489 14.4446 44.6277 14.1794 44.4237 13.9134L45.6854 11.6992L46.5265 12.1778ZM47.6493 12.217L45.8093 15.445C45.7332 15.3713 45.6563 15.2983 45.5826 15.2238L47.3825 12.0656L47.6493 12.217ZM45.7481 11.1334L44.2761 13.7157C44.2087 13.6239 44.1427 13.5321 44.08 13.4403L45.4814 10.9812L45.7481 11.1334ZM44.9603 8.98037L43.2506 11.9801C43.0662 11.5689 42.9258 11.1601 42.8316 10.7599L44.1192 8.50095L44.9603 8.98037ZM44.2087 7.88972L42.7641 10.4241C42.7343 10.2515 42.7139 10.0812 42.7021 9.91331L43.9419 7.73828L44.2087 7.88972Z" fill="#FCB57A"/>
<path d="M61.5236 16.0477C63.1123 13.2606 60.5006 8.77852 55.6903 6.03666C50.88 3.29481 45.6926 3.33148 44.104 6.11857C42.5154 8.90566 45.1271 13.3878 49.9374 16.1296C54.7477 18.8715 59.935 18.8348 61.5236 16.0477Z" fill="#FCB57A"/>
<path d="M59.2969 14.7788C60.4793 12.7044 58.5354 9.36836 54.9551 7.32758C51.3747 5.2868 47.5138 5.31407 46.3314 7.38848C45.149 9.46289 47.0929 12.7989 50.6732 14.8397C54.2535 16.8805 58.1145 16.8532 59.2969 14.7788Z" fill="#FF9C39"/>
<path d="M55.4283 9.22883C55.9179 9.50738 56.2035 9.94678 56.2874 10.547C56.3565 11.039 56.2874 11.6063 56.0787 12.2489L57.0493 12.8021C57.3263 12.9598 57.3797 13.1881 57.2102 13.4855C57.1364 13.615 57.0297 13.6879 56.89 13.7044C56.777 13.7154 56.6719 13.6934 56.5738 13.6369L55.7154 13.1481C55.6629 13.2517 55.6095 13.3521 55.5554 13.4478C55.2588 13.9681 54.9583 14.3337 54.653 14.544C54.38 14.7347 54.1461 14.7747 53.9516 14.664C53.5812 14.453 53.5129 14.143 53.746 13.7342C53.8064 13.6283 53.9468 13.4698 54.1681 13.2595C54.3894 13.0493 54.5212 12.9064 54.5636 12.8319C54.6036 12.7621 54.646 12.6726 54.6899 12.5643L52.9778 11.5882C52.6914 12.0253 52.3752 12.3564 52.0308 12.5816C51.5812 12.8774 51.1684 12.9182 50.7934 12.704C50.3665 12.4608 50.0794 12.0496 49.9318 11.4721C49.8 10.9582 49.7953 10.4152 49.9185 9.84399L49.2774 9.47913C48.9746 9.30651 48.904 9.07818 49.0664 8.79336C49.221 8.52187 49.4501 8.47166 49.7529 8.64428L50.2653 8.93616C50.4505 8.65369 50.6937 8.3775 50.995 8.1068C51.3779 7.7592 51.6604 7.63758 51.8417 7.74037C51.9892 7.82433 52.0849 7.94908 52.1273 8.11464C52.1704 8.2802 52.15 8.43635 52.0661 8.58386C51.9954 8.70783 51.8715 8.8679 51.6957 9.06249C51.5121 9.26963 51.3866 9.42813 51.3175 9.53641L52.5094 10.2159C52.5298 10.1798 52.5478 10.1524 52.562 10.1327C52.9323 9.58585 53.3497 9.22569 53.8158 9.05229C54.34 8.85534 54.8774 8.91419 55.4283 9.22883ZM51.0092 10.4654C50.9275 10.9817 51.006 11.3073 51.2438 11.4431C51.4486 11.56 51.6989 11.4211 51.9947 11.028L51.0092 10.4654ZM54.9716 11.6181C55.0979 10.9394 55.0147 10.5164 54.7229 10.3493C54.2827 10.0982 53.8715 10.2395 53.4886 10.7722L54.9716 11.6181Z" fill="#F28C2F"/>
<path d="M55.4572 9.17995C55.9468 9.4585 56.2473 9.87279 56.3595 10.4213C56.4529 10.8716 56.4152 11.3832 56.2465 11.9552L57.2171 12.5084C57.4941 12.6661 57.5584 12.8756 57.4094 13.1369C57.3442 13.2507 57.2446 13.3111 57.1104 13.3189C57.0013 13.3229 56.8978 13.297 56.7997 13.2413L55.9413 12.7524C55.8958 12.8442 55.8495 12.9321 55.8016 13.0161C55.5411 13.4727 55.2689 13.7882 54.984 13.9631C54.729 14.1216 54.5046 14.1459 54.31 14.0353C53.9397 13.8242 53.8573 13.5394 54.0621 13.1801C54.1154 13.0867 54.2433 12.9509 54.4466 12.772C54.6498 12.5931 54.7698 12.4707 54.8075 12.4048C54.8428 12.3436 54.8789 12.2652 54.9166 12.1687L53.2045 11.1926C52.9495 11.5739 52.6607 11.8579 52.3382 12.0439C51.9177 12.2887 51.5198 12.3044 51.144 12.0902C50.7172 11.8469 50.4166 11.4586 50.2432 10.9266C50.0879 10.4526 50.0549 9.95989 50.1444 9.4483L49.5033 9.08344C49.2004 8.91082 49.1204 8.69975 49.2624 8.44945C49.3982 8.21092 49.6179 8.17797 49.9207 8.35059L50.4331 8.64248C50.5979 8.3961 50.8192 8.15835 51.0969 7.92845C51.45 7.63343 51.7176 7.5377 51.8988 7.64049C52.0463 7.72445 52.1452 7.84293 52.1962 7.99515C52.2464 8.14737 52.2347 8.28782 52.1609 8.41728C52.0989 8.52635 51.9875 8.66444 51.8266 8.83157C51.6595 9.01047 51.5457 9.147 51.4845 9.24194L52.6764 9.92144C52.6945 9.88927 52.7101 9.86573 52.7227 9.84847C53.053 9.37141 53.4391 9.06697 53.8824 8.93358C54.3814 8.78293 54.9056 8.86531 55.4572 9.17995ZM51.2358 10.069C51.184 10.5327 51.2774 10.8332 51.5151 10.9689C51.7199 11.0858 51.9553 10.9729 52.2221 10.6315L51.2358 10.069ZM55.1402 11.3244C55.2273 10.7147 55.1245 10.3263 54.8318 10.16C54.3916 9.90889 54.0001 10.0156 53.6572 10.4793L55.1402 11.3244Z" fill="#FCB57A"/>
<path d="M85.7743 35.954L84.8892 36.078C84.4726 36.1361 84.0559 36.0286 83.6628 35.7869C83.6024 35.75 83.5428 35.71 83.4839 35.6668C83.3717 35.5845 83.2619 35.4911 83.156 35.3883C83.0296 35.2667 82.9088 35.1301 82.7919 34.9819C82.7676 34.9505 82.7432 34.9183 82.7189 34.8853C82.6867 34.8422 82.6554 34.7982 82.6248 34.7535C82.5267 34.6115 82.4333 34.4593 82.3446 34.2992C82.3203 34.2545 82.296 34.2098 82.2724 34.1643C82.2214 34.0662 82.172 33.9642 82.1249 33.8598C82.0622 33.7201 82.0025 33.5766 81.9476 33.4275C81.9351 33.3937 81.9233 33.36 81.9115 33.3263C81.895 33.2807 81.8793 33.2345 81.8636 33.1882C81.8126 33.0344 81.7664 32.8759 81.724 32.7135C81.7122 32.6672 81.7004 32.6201 81.6895 32.573C81.6643 32.4694 81.6416 32.3643 81.6204 32.2576C81.5914 32.1108 81.5663 31.9618 81.5451 31.8103C81.5404 31.7758 81.5357 31.7405 81.531 31.7052C81.5247 31.6573 81.5192 31.6102 81.5145 31.5624C81.5066 31.4926 81.4996 31.4227 81.4941 31.3529C81.4902 31.305 81.4862 31.2572 81.4839 31.2093C81.4768 31.1002 81.4713 30.9927 81.469 30.886C81.4651 30.7315 81.4666 30.5784 81.4721 30.4286C81.4737 30.3925 81.4745 30.3564 81.4768 30.3211C81.4792 30.2716 81.4823 30.223 81.4855 30.1751C81.4909 30.103 81.4972 30.0308 81.5043 29.9601C81.5098 29.9107 81.5153 29.8613 81.5215 29.8126C81.5357 29.6996 81.5521 29.589 81.5718 29.4807C81.6008 29.3183 81.6353 29.1606 81.6761 29.0092C81.6863 28.9715 81.6957 28.9346 81.7067 28.8977C81.7216 28.8467 81.7365 28.7957 81.7522 28.7463C81.7766 28.6702 81.8024 28.5957 81.8299 28.5235C81.8495 28.4709 81.8699 28.4199 81.8903 28.3697C81.9413 28.2481 81.997 28.1319 82.0559 28.0221C82.1555 27.8361 82.267 27.6674 82.3878 27.5183C82.4223 27.4768 82.4568 27.436 82.4929 27.3975C82.5479 27.3371 82.6059 27.2806 82.6648 27.2288C82.9363 26.9887 83.2454 26.8349 83.5852 26.7871L84.4702 26.6631L85.7743 35.954Z" fill="#FF9C39"/>
<path d="M83.0477 32.0577L81.6212 32.2578C81.5922 32.1111 81.5671 31.962 81.5459 31.8105L82.9849 31.6089L83.0477 32.0577ZM83.367 32.4822L81.7248 32.7129C81.713 32.6666 81.7012 32.6195 81.6902 32.5724L83.3474 32.3402L83.367 32.4822ZM84.0206 34.064L82.3454 34.2994C82.3211 34.2547 82.2968 34.21 82.2732 34.1645L84.001 33.922L84.0206 34.064ZM83.8778 33.0503L81.9123 33.3265C81.8958 33.281 81.8801 33.2347 81.8644 33.1884L83.8582 32.9083L83.8778 33.0503ZM84.6734 35.6451L83.6628 35.7871C83.6024 35.7502 83.5428 35.7102 83.4839 35.667L84.653 35.5031L84.6734 35.6451ZM84.5314 34.6313L82.7197 34.8855C82.6875 34.8424 82.6561 34.7984 82.6255 34.7537L84.5118 34.4893L84.5314 34.6313ZM82.7872 30.7026L81.469 30.8878C81.4651 30.7332 81.4666 30.5802 81.4721 30.4304L82.7244 30.2546L82.7872 30.7026ZM83.0547 31.135L81.4941 31.3539C81.4902 31.306 81.4862 31.2581 81.4839 31.2103L83.0351 30.9929L83.0547 31.135ZM82.9198 29.2934L81.5718 29.4825C81.6008 29.3201 81.6353 29.1624 81.6761 29.0109L82.857 28.8454L82.9198 29.2934ZM83.2258 29.7203L81.5043 29.9619C81.5098 29.9125 81.5153 29.8631 81.5215 29.8144L83.2062 29.5782L83.2258 29.7203ZM83.0838 28.7065L81.7067 28.8995C81.7216 28.8485 81.7365 28.7975 81.7522 28.7481L83.0634 28.5637L83.0838 28.7065ZM83.6558 27.7987L82.0559 28.0231C82.1555 27.8371 82.267 27.6684 82.3878 27.5193L83.593 27.3506L83.6558 27.7987ZM83.8449 27.2086L82.4929 27.3985C82.5479 27.3381 82.6059 27.2816 82.6648 27.2298L83.8252 27.0674L83.8449 27.2086Z" fill="#FCB57A"/>
<path d="M85.7766 35.9512C87.2631 35.7426 88.1764 33.4935 87.8164 30.9277C87.4564 28.3618 85.9594 26.4509 84.4729 26.6594C82.9863 26.868 82.0731 29.1171 82.4331 31.683C82.7931 34.2488 84.2901 36.1597 85.7766 35.9512Z" fill="#FCB57A"/>
<path d="M85.6102 34.7624C86.7166 34.6072 87.3962 32.9333 87.1282 31.0236C86.8603 29.1139 85.7462 27.6916 84.6399 27.8469C83.5336 28.0021 82.8539 29.676 83.1219 31.5857C83.3898 33.4954 84.5039 34.9177 85.6102 34.7624Z" fill="#FF9C39"/>
<path d="M86.557 31.7468C86.5939 32.0081 86.513 32.2395 86.3145 32.442C86.1521 32.6083 85.9222 32.7448 85.6241 32.8515L85.697 33.3694C85.7174 33.5169 85.6484 33.6025 85.4899 33.6244C85.4208 33.6338 85.3635 33.6158 85.3173 33.5687C85.2812 33.5303 85.2592 33.4848 85.2513 33.4322L85.187 32.9747C85.1336 32.9849 85.0811 32.9936 85.0301 33.0006C84.7523 33.0399 84.531 33.0328 84.3663 32.9794C84.2172 32.9324 84.1356 32.8578 84.1215 32.7543C84.094 32.5565 84.1889 32.4428 84.4071 32.4122C84.4636 32.4043 84.5624 32.4114 84.7037 32.4326C84.8449 32.4545 84.9351 32.4624 84.9752 32.4569C85.012 32.4514 85.0575 32.442 85.1101 32.4271L84.9822 31.5137C84.7382 31.5326 84.5255 31.5106 84.3435 31.447C84.105 31.3647 83.9724 31.2242 83.9441 31.0233C83.912 30.7958 83.9818 30.5714 84.1536 30.3517C84.3066 30.1555 84.5059 29.9986 84.7531 29.8809L84.7052 29.5388C84.6825 29.3772 84.7468 29.2861 84.899 29.2642C85.0442 29.2438 85.1282 29.3144 85.1501 29.476L85.1886 29.7491C85.3463 29.7365 85.5181 29.7483 85.7041 29.782C85.9426 29.8244 86.0682 29.8942 86.0815 29.9907C86.0925 30.0692 86.0736 30.1406 86.025 30.2034C85.9764 30.2669 85.912 30.3038 85.8336 30.3148C85.7676 30.3242 85.6727 30.3242 85.5503 30.314C85.4208 30.3054 85.3267 30.3038 85.267 30.3093L85.3565 30.9449C85.3761 30.9425 85.391 30.9409 85.402 30.9402C85.7104 30.9205 85.963 30.9723 86.1607 31.0955C86.3844 31.2368 86.5162 31.4525 86.557 31.7468ZM84.8355 30.4631C84.6213 30.5808 84.5224 30.7024 84.5405 30.8295C84.5562 30.9386 84.6786 30.9919 84.9092 30.9888L84.8355 30.4631ZM85.5417 32.2607C85.8296 32.1132 85.9622 31.9618 85.9403 31.8056C85.9073 31.571 85.7378 31.4588 85.4302 31.4698L85.5417 32.2607Z" fill="#F28C2F"/>
<path d="M86.5838 31.743C86.6207 32.0043 86.5532 32.2334 86.3822 32.4319C86.2417 32.5951 86.0416 32.7277 85.7819 32.829L85.8549 33.3468C85.8753 33.4943 85.8165 33.5783 85.6768 33.5979C85.6164 33.6065 85.5654 33.5869 85.5238 33.5391C85.4908 33.4998 85.4712 33.4543 85.4634 33.4017L85.399 32.9443C85.3519 32.9537 85.3064 32.9616 85.2617 32.9678C85.0185 33.0024 84.8231 32.9914 84.6771 32.9357C84.5453 32.8862 84.4724 32.8101 84.4575 32.7066C84.43 32.5088 84.5116 32.3966 84.703 32.3699C84.7525 32.3629 84.8396 32.3715 84.9643 32.3958C85.0891 32.4202 85.1683 32.4296 85.2036 32.4249C85.2366 32.4202 85.2758 32.4115 85.3221 32.3974L85.1942 31.4841C84.98 31.499 84.7925 31.4731 84.6309 31.4072C84.4198 31.3217 84.3005 31.1781 84.2723 30.978C84.2401 30.7504 84.2982 30.5284 84.4457 30.3118C84.5767 30.1188 84.7501 29.9658 84.9651 29.8528L84.9173 29.5107C84.8945 29.3491 84.9502 29.2588 85.0828 29.24C85.2099 29.222 85.2852 29.2942 85.308 29.4558L85.3464 29.7288C85.4845 29.7194 85.636 29.7335 85.8008 29.7704C86.011 29.8167 86.1232 29.8889 86.1366 29.9854C86.1476 30.0639 86.1319 30.1345 86.0903 30.1965C86.0487 30.2585 85.993 30.2946 85.9239 30.304C85.8659 30.3118 85.7827 30.3103 85.6752 30.2985C85.5614 30.2875 85.4783 30.2844 85.4257 30.2891L85.5151 30.9246C85.5324 30.9223 85.5457 30.9207 85.5552 30.9207C85.8259 30.9066 86.0495 30.9623 86.2253 31.0886C86.423 31.2314 86.5422 31.4488 86.5838 31.743ZM85.0467 30.4342C84.86 30.548 84.7752 30.6681 84.7933 30.7952C84.809 30.9042 84.9172 30.9592 85.1205 30.9607L85.0467 30.4342ZM85.6988 32.2389C85.9491 32.0969 86.0636 31.9478 86.0416 31.7917C86.0087 31.5571 85.8573 31.4425 85.5873 31.448L85.6988 32.2389Z" fill="#FCB57A"/>
<path d="M86.9547 43.7158L87.0363 44.7398C87.0747 45.2215 86.9217 45.6931 86.6173 46.127C86.571 46.1937 86.5208 46.2588 86.4666 46.324C86.3646 46.4472 86.2501 46.5664 86.1237 46.6818C85.9754 46.8183 85.8107 46.9478 85.6318 47.0717C85.5941 47.0976 85.5557 47.1235 85.5164 47.1486C85.4646 47.1824 85.4121 47.2153 85.3587 47.2483C85.1884 47.3511 85.008 47.4476 84.8173 47.5386C84.7647 47.5637 84.7114 47.588 84.6573 47.6116C84.5403 47.6633 84.4211 47.7128 84.2979 47.7599C84.1331 47.8226 83.9636 47.8807 83.7894 47.9333C83.7502 47.945 83.7102 47.9568 83.671 47.9678C83.6176 47.9835 83.5635 47.9984 83.5093 48.0125C83.3289 48.0604 83.1437 48.1027 82.9546 48.1404C82.9004 48.1514 82.8463 48.1616 82.7914 48.171C82.6705 48.1922 82.5489 48.2118 82.4249 48.2283C82.2547 48.251 82.0821 48.2699 81.9071 48.284C81.8671 48.2871 81.8263 48.2903 81.7855 48.2926C81.7305 48.2966 81.6756 48.2997 81.6207 48.302C81.5399 48.3068 81.4591 48.3091 81.379 48.3115C81.3233 48.313 81.2684 48.3138 81.2135 48.3138C81.0879 48.3146 80.9647 48.313 80.8415 48.3083C80.6634 48.302 80.4884 48.2903 80.3166 48.2738C80.2758 48.2699 80.2342 48.266 80.1934 48.2612C80.1369 48.255 80.0812 48.2479 80.0263 48.2408C79.9439 48.2299 79.8615 48.2173 79.7815 48.2047C79.725 48.1953 79.6693 48.1859 79.6136 48.1749C79.4849 48.1514 79.3593 48.1247 79.2362 48.0941C79.0518 48.0502 78.8737 47.9992 78.7018 47.9419C78.6595 47.9278 78.6179 47.9136 78.5763 47.8987C78.5182 47.8783 78.4617 47.8572 78.406 47.836C78.3205 47.8022 78.2365 47.7677 78.1557 47.7316C78.0969 47.7057 78.0396 47.6783 77.9831 47.6516C77.8466 47.5849 77.7179 47.5127 77.5955 47.4374C77.3891 47.3103 77.2032 47.1706 77.0399 47.0215C76.9944 46.9791 76.9505 46.936 76.9081 46.8928C76.8422 46.8254 76.7818 46.7555 76.7261 46.6841C76.4695 46.3561 76.3142 45.9905 76.2828 45.5974L76.2012 44.5734L86.9547 43.7158Z" fill="#FF9C39"/>
<path d="M82.2945 46.5765L82.4255 48.2274C82.2552 48.2502 82.0826 48.269 81.9076 48.2831L81.775 46.6181L82.2945 46.5765ZM82.8037 46.2383L82.9551 48.1395C82.901 48.1505 82.8468 48.1607 82.7919 48.1701L82.6389 46.2517L82.8037 46.2383ZM84.6641 45.5981L84.8186 47.5369C84.7661 47.562 84.7127 47.5864 84.6586 47.6099L84.4993 45.6106L84.6641 45.5981ZM83.4902 45.6915L83.6715 47.9669C83.6181 47.9826 83.564 47.9975 83.5099 48.0116L83.3263 45.704L83.4902 45.6915ZM86.5244 44.957L86.6178 46.1269C86.5715 46.1936 86.5213 46.2587 86.4672 46.3239L86.3597 44.9704L86.5244 44.957ZM85.3506 45.0504L85.5178 47.1477C85.466 47.1815 85.4134 47.2144 85.36 47.2474L85.1866 45.0637L85.3506 45.0504ZM80.7212 46.7813L80.8429 48.3067C80.6648 48.3004 80.4898 48.2886 80.3179 48.2721L80.2026 46.8229L80.7212 46.7813ZM81.236 46.5043L81.3796 48.3106C81.3239 48.3122 81.2689 48.3129 81.214 48.3129L81.0712 46.5177L81.236 46.5043ZM79.1119 46.5326L79.2359 48.0925C79.0515 48.0485 78.8734 47.9975 78.7016 47.9402L78.5925 46.5734L79.1119 46.5326ZM79.6235 46.2101L79.782 48.2031C79.7255 48.1937 79.6698 48.1843 79.6141 48.1733L79.4588 46.2234L79.6235 46.2101ZM78.4497 46.3035L78.5768 47.8979C78.5188 47.8775 78.4623 47.8563 78.4066 47.8351L78.2857 46.3168L78.4497 46.3035ZM77.4477 45.584L77.5952 47.4357C77.3889 47.3086 77.2029 47.1689 77.0397 47.0199L76.9291 45.6255L77.4477 45.584ZM76.7831 45.3266L76.9079 46.8912C76.842 46.8237 76.7816 46.7539 76.7259 46.6825L76.6191 45.3399L76.7831 45.3266Z" fill="#FCB57A"/>
<path d="M81.8243 47.26C84.7942 47.0237 87.0908 45.4373 86.9539 43.7167C86.817 41.9962 84.2985 40.7929 81.3286 41.0292C78.3587 41.2655 76.0621 42.8518 76.199 44.5724C76.3359 46.293 78.8545 47.4962 81.8243 47.26Z" fill="#FCB57A"/>
<path d="M81.7609 46.4628C83.9714 46.2869 85.6807 45.1064 85.5788 43.826C85.4769 42.5456 83.6025 41.6502 81.392 41.8261C79.1816 42.002 77.4722 43.1825 77.5741 44.4629C77.676 45.7433 79.5505 46.6387 81.7609 46.4628Z" fill="#FF9C39"/>
<path d="M82.1784 42.5258C82.4805 42.5015 82.741 42.6105 82.9591 42.8522C83.1388 43.0499 83.28 43.3238 83.3812 43.6722L83.9807 43.6243C84.1518 43.6109 84.2443 43.6957 84.2593 43.8793C84.2655 43.9593 84.2404 44.0237 84.1831 44.0739C84.1361 44.1131 84.0827 44.1351 84.0223 44.1398L83.4927 44.1822C83.5005 44.2442 83.5076 44.3046 83.5123 44.3642C83.5382 44.6851 83.5146 44.9393 83.4424 45.1245C83.3789 45.2916 83.2871 45.3803 83.167 45.3897C82.9387 45.4078 82.814 45.2909 82.7943 45.0382C82.7888 44.9731 82.8037 44.8601 82.8383 44.6992C82.8728 44.5392 82.8885 44.4356 82.8846 44.3893C82.8814 44.3462 82.8728 44.2936 82.8602 44.2324L81.8033 44.3163C81.808 44.5972 81.768 44.8405 81.6825 45.0445C81.5719 45.3121 81.4008 45.4556 81.1693 45.4737C80.9057 45.4949 80.6538 45.3991 80.4129 45.1865C80.1987 44.9974 80.0324 44.7573 79.9139 44.4662L79.5185 44.4976C79.3317 44.5125 79.2313 44.4317 79.2171 44.2559C79.2038 44.088 79.2909 43.997 79.4777 43.9821L79.7939 43.957C79.7907 43.7757 79.815 43.5788 79.8676 43.3677C79.9327 43.097 80.0214 42.9573 80.1336 42.9487C80.2246 42.9416 80.3047 42.9683 80.3737 43.0287C80.4428 43.0892 80.4812 43.1653 80.4883 43.2563C80.4946 43.3332 80.4875 43.4415 80.4687 43.5811C80.4498 43.7286 80.442 43.8377 80.4435 43.906L81.1795 43.8471C81.178 43.8244 81.1772 43.8071 81.178 43.7946C81.1772 43.4391 81.2541 43.1527 81.4087 42.9346C81.5813 42.689 81.8386 42.5533 82.1784 42.5258ZM80.5871 44.4136C80.7072 44.6679 80.8406 44.7887 80.9873 44.7777C81.1136 44.7675 81.1827 44.6302 81.196 44.3658L80.5871 44.4136ZM82.6986 43.7263C82.5495 43.3858 82.3847 43.2233 82.2035 43.2375C81.932 43.2594 81.7916 43.4462 81.7829 43.7993L82.6986 43.7263Z" fill="#F28C2F"/>
<path d="M82.1766 42.496C82.4787 42.4716 82.7376 42.565 82.9542 42.7753C83.1323 42.9471 83.2696 43.1864 83.3685 43.4917L83.9679 43.4438C84.139 43.4305 84.2308 43.5042 84.2433 43.6651C84.2488 43.7349 84.2229 43.7922 84.1657 43.8361C84.1186 43.8706 84.0644 43.891 84.004 43.8958L83.4744 43.9381C83.4822 43.9923 83.4877 44.0456 83.4917 44.0974C83.5144 44.3791 83.4885 44.6019 83.4148 44.7659C83.3496 44.9134 83.2571 44.9927 83.137 45.0021C82.9087 45.0201 82.7855 44.9189 82.7674 44.6969C82.7627 44.6396 82.7784 44.5399 82.8145 44.3987C82.8506 44.2575 82.8671 44.1665 82.8639 44.1257C82.8608 44.088 82.853 44.0417 82.8412 43.9876L81.7843 44.0715C81.7858 44.3187 81.7435 44.5321 81.6564 44.7126C81.5434 44.9487 81.3708 45.0759 81.1393 45.0947C80.8757 45.1159 80.6246 45.0343 80.3868 44.8499C80.1742 44.6859 80.011 44.4772 79.8956 44.2222L79.5002 44.2536C79.3134 44.2685 79.2138 44.1986 79.2012 44.0448C79.1895 43.8973 79.2773 43.8165 79.4641 43.8016L79.7803 43.7765C79.7787 43.6172 79.8054 43.4446 79.8596 43.2578C79.9278 43.0193 80.0173 42.8961 80.1295 42.8867C80.2205 42.8796 80.3005 42.9024 80.3688 42.9542C80.437 43.0068 80.4747 43.0727 80.481 43.1527C80.4865 43.2202 80.4786 43.3151 80.4582 43.4383C80.4378 43.5686 80.4284 43.6635 80.43 43.7239L81.166 43.6651C81.1644 43.6455 81.1636 43.6298 81.1644 43.6188C81.1668 43.3065 81.2468 43.0538 81.4029 42.8608C81.5787 42.6458 81.8361 42.5234 82.1766 42.496ZM80.5681 44.1696C80.6858 44.3916 80.8176 44.4968 80.9643 44.485C81.0907 44.4748 81.1613 44.354 81.1762 44.1209L80.5681 44.1696ZM82.685 43.5458C82.5391 43.2484 82.3759 43.1064 82.1954 43.1213C81.9239 43.1433 81.7819 43.3088 81.7694 43.6188L82.685 43.5458Z" fill="#FCB57A"/>
<path d="M73.3125 12.8706L74.4902 13.7855C75.0442 14.2163 75.737 14.4062 76.5068 14.3826C76.6245 14.3795 76.7445 14.3709 76.8654 14.3567C77.096 14.3308 77.3322 14.2877 77.5723 14.2265C77.8556 14.1551 78.1451 14.0593 78.437 13.9409C78.4982 13.9158 78.561 13.8899 78.6222 13.8624C78.7046 13.8271 78.7862 13.7886 78.8685 13.7502C79.1283 13.6254 79.3903 13.4834 79.6516 13.3249C79.7238 13.281 79.796 13.2355 79.8682 13.1892C80.0243 13.0895 80.1797 12.9836 80.3343 12.8714C80.5414 12.7215 80.747 12.5623 80.9502 12.3928C80.9957 12.3543 81.042 12.3159 81.0875 12.2766C81.1487 12.2241 81.2107 12.1707 81.2711 12.1158C81.4728 11.9353 81.6721 11.7447 81.8674 11.5454C81.9239 11.4881 81.9789 11.4308 82.0346 11.372C82.157 11.2425 82.277 11.1099 82.3963 10.9734C82.5595 10.785 82.7203 10.5904 82.8765 10.3888C82.9126 10.3425 82.9479 10.2954 82.984 10.2483C83.0326 10.184 83.0805 10.1205 83.1268 10.0561C83.1966 9.96117 83.2649 9.86623 83.33 9.7705C83.3755 9.70459 83.421 9.6379 83.4642 9.5712C83.5646 9.41977 83.6619 9.26833 83.7537 9.11611C83.8879 8.89563 84.0134 8.67357 84.1296 8.45152C84.1578 8.39895 84.1861 8.34559 84.212 8.29224C84.2496 8.21926 84.2849 8.14629 84.321 8.07332C84.3736 7.96426 84.4238 7.85519 84.4724 7.74691C84.5054 7.6708 84.5391 7.59547 84.5697 7.51936C84.6435 7.34439 84.711 7.17099 84.773 6.9968C84.8663 6.73786 84.9464 6.4805 85.0146 6.22785C85.0311 6.16586 85.0476 6.10387 85.0625 6.04189C85.0837 5.95558 85.1041 5.87005 85.1221 5.78452C85.1496 5.65427 85.1739 5.52481 85.1951 5.39691C85.21 5.30432 85.2234 5.21409 85.2351 5.12385C85.2626 4.90494 85.2791 4.69152 85.2846 4.4828C85.2948 4.1305 85.2744 3.79389 85.2234 3.47768C85.2084 3.38901 85.192 3.30113 85.1724 3.21482C85.1425 3.08144 85.1064 2.95275 85.0641 2.82721C84.871 2.25442 84.5509 1.77422 84.099 1.4227L82.9212 0.507812L73.3125 12.8706Z" fill="#FF9C39"/>
<path d="M80.4967 9.49788L82.3947 10.973C82.5579 10.7847 82.7188 10.5901 82.8749 10.3884L80.9604 8.90077L80.4967 9.49788ZM79.6807 9.84704L81.8659 11.5458C81.9224 11.4885 81.9773 11.4312 82.033 11.3724L79.8282 9.65873L79.6807 9.84704ZM77.4209 11.5929L79.6501 13.3254C79.7222 13.2814 79.7944 13.2359 79.8666 13.1896L77.5684 11.403L77.4209 11.5929ZM78.47 10.2433L81.086 12.2763C81.1472 12.2237 81.2091 12.1704 81.2696 12.1154L78.6167 10.0534L78.47 10.2433ZM75.1611 13.3379L76.506 14.3831C76.6237 14.3799 76.7438 14.3713 76.8646 14.3572L75.3086 13.148L75.1611 13.3379ZM76.2094 11.9891L78.6206 13.8628C78.703 13.8275 78.7846 13.7891 78.867 13.7506L76.3569 11.7992L76.2094 11.9891ZM81.9985 7.75284L83.7522 9.11576C83.8863 8.89528 84.0119 8.67322 84.128 8.45117L82.4622 7.15651L81.9985 7.75284ZM81.2523 8.15614L83.3285 9.77015C83.374 9.70424 83.4195 9.63755 83.4626 9.57085L81.399 7.96705L81.2523 8.15614ZM82.9785 5.60292L84.7722 6.99644C84.8656 6.73751 84.9456 6.48015 85.0139 6.2275L83.4422 5.00659L82.9785 5.60292ZM82.1805 5.96621L84.4709 7.74656C84.5038 7.67045 84.5376 7.59513 84.5682 7.51902L82.3265 5.77711L82.1805 5.96621ZM83.2288 4.61741L85.0617 6.04154C85.0829 5.95522 85.1033 5.8697 85.1214 5.78417L83.3763 4.42753L83.2288 4.61741ZM83.1551 2.82843L85.2838 4.48324C85.294 4.13094 85.2736 3.79433 85.2226 3.47811L83.6196 2.2321L83.1551 2.82843ZM83.3724 1.81703L85.1708 3.21526C85.141 3.08187 85.1049 2.95319 85.0625 2.82765L83.5191 1.62793L83.3724 1.81703Z" fill="#FCB57A"/>
<path d="M81.6969 9.46856C84.3504 6.05454 84.8979 2.04067 82.9199 0.503335C80.9419 -1.034 77.1874 0.487356 74.534 3.90138C71.8805 7.3154 71.333 11.3293 73.311 12.8666C75.289 14.4039 79.0435 12.8826 81.6969 9.46856Z" fill="#FCB57A"/>
<path d="M80.7813 8.75712C82.7561 6.21628 83.1635 3.22888 81.6912 2.08459C80.2189 0.9403 77.4245 2.07243 75.4497 4.61327C73.4749 7.15411 73.0676 10.1415 74.5398 11.2858C76.0121 12.4301 78.8065 11.298 80.7813 8.75712Z" fill="#FF9C39"/>
<path d="M76.7851 5.52148C77.1727 5.50736 77.5823 5.6431 78.0123 5.92714C78.0287 5.93656 78.0491 5.95147 78.075 5.97187L78.7326 5.12602C78.651 5.06875 78.5129 4.99185 78.3183 4.89691C78.1331 4.80903 77.9966 4.73056 77.9087 4.6623C77.8043 4.5807 77.7423 4.47399 77.7243 4.34217C77.7062 4.21035 77.7376 4.09187 77.8192 3.98672C77.9189 3.85804 78.159 3.86197 78.5395 3.99849C78.8377 4.10364 79.0958 4.23075 79.3132 4.37904L79.5957 4.01497C79.7628 3.79998 79.9425 3.76781 80.1355 3.91768C80.3379 4.07461 80.3552 4.26056 80.1881 4.47556L79.835 4.92986C80.0939 5.30571 80.2532 5.69803 80.3113 6.10918C80.3772 6.56976 80.2924 6.95188 80.057 7.25554C79.8499 7.52153 79.54 7.61569 79.1272 7.53644C78.811 7.47681 78.4846 7.33165 78.1472 7.10175L77.2025 8.31716C77.2669 8.38228 77.3241 8.43407 77.3736 8.47252C77.4269 8.5141 77.5642 8.57766 77.7871 8.66318C78.0091 8.74871 78.1582 8.8209 78.2335 8.87975C78.5238 9.10572 78.567 9.34975 78.363 9.61182C78.2563 9.74991 78.075 9.79071 77.8216 9.73422C77.5391 9.6738 77.2127 9.49961 76.8431 9.21243C76.7749 9.15986 76.7066 9.10337 76.6384 9.04452L76.1652 9.6534C76.1111 9.72323 76.0412 9.7711 75.9565 9.79621C75.8506 9.82602 75.7517 9.80562 75.6599 9.73422C75.4488 9.57023 75.4198 9.38976 75.572 9.19282L76.1071 8.5039C75.765 8.10217 75.5453 7.71377 75.4488 7.33793C75.3304 6.88048 75.4057 6.47796 75.6756 6.13036C75.9793 5.73961 76.3496 5.53639 76.7851 5.52148ZM78.6894 6.4042C79.0205 6.59958 79.2426 6.62469 79.3556 6.47953C79.4866 6.31083 79.4466 6.0519 79.2332 5.7043L78.6894 6.4042ZM77.536 6.66627C77.1005 6.39557 76.7615 6.41676 76.5191 6.72904C76.3574 6.93697 76.4241 7.26652 76.7176 7.71926L77.536 6.66627Z" fill="#F28C2F"/>
<path d="M76.7022 5.45625C77.0616 5.42016 77.4312 5.5253 77.8117 5.7709C77.8258 5.77953 77.8447 5.79208 77.8674 5.80934L78.5249 4.9635C78.4528 4.91328 78.3296 4.84894 78.1562 4.76969C77.9906 4.69672 77.869 4.63003 77.7913 4.57039C77.6995 4.49899 77.6493 4.40091 77.6399 4.27615C77.6312 4.1514 77.6673 4.03684 77.7482 3.9317C77.8478 3.80302 78.0699 3.79282 78.4127 3.90031C78.6819 3.9827 78.9126 4.08862 79.1048 4.21731L79.3873 3.85323C79.5544 3.63824 79.7223 3.59666 79.8918 3.72848C80.0691 3.86657 80.0746 4.04233 79.9075 4.25732L79.5544 4.71163C79.7717 5.05452 79.8949 5.42016 79.924 5.80777C79.9577 6.24325 79.8565 6.61282 79.6211 6.91647C79.4139 7.18247 79.1221 7.29075 78.7454 7.23896C78.4575 7.20051 78.164 7.08203 77.8666 6.88273L76.9219 8.09814C76.9776 8.15621 77.0271 8.2025 77.071 8.23624C77.1181 8.27233 77.2413 8.3249 77.4414 8.39395C77.6414 8.463 77.7748 8.52263 77.8407 8.57363C78.0958 8.77136 78.1209 9.00205 77.9169 9.2649C77.8101 9.403 77.6407 9.45243 77.4092 9.41398C77.1518 9.37318 76.8607 9.22646 76.5367 8.97459C76.477 8.92829 76.4174 8.87886 76.357 8.82629L75.8838 9.43517C75.8297 9.505 75.7622 9.55444 75.683 9.58425C75.5833 9.61878 75.4939 9.60465 75.4131 9.54266C75.2279 9.39829 75.2114 9.22802 75.3644 9.03187L75.8995 8.34295C75.6076 7.98045 75.4272 7.62265 75.3605 7.26956C75.2781 6.84036 75.3715 6.45196 75.6414 6.10437C75.945 5.71205 76.2989 5.49627 76.7022 5.45625ZM78.4088 6.18597C78.7031 6.3531 78.9071 6.36408 79.0193 6.21893C79.1503 6.05023 79.1283 5.80542 78.9526 5.48607L78.4088 6.18597ZM77.3276 6.50375C76.9415 6.2715 76.6277 6.31151 76.3844 6.6238C76.2228 6.83173 76.2644 7.14245 76.5092 7.55595L77.3276 6.50375Z" fill="#FCB57A"/>
<path d="M68.7607 33.1344L69.933 33.4106C70.4846 33.5408 71.0409 33.4812 71.5674 33.2654C71.6482 33.2324 71.7283 33.1956 71.8067 33.1555C71.9574 33.0786 72.1049 32.9892 72.2485 32.888C72.4187 32.7687 72.5827 32.6322 72.7404 32.48C72.7734 32.4478 72.8071 32.4148 72.8393 32.3811C72.8825 32.3372 72.9256 32.2917 72.9672 32.2454C73.0998 32.0978 73.2277 31.9394 73.3485 31.7699C73.3815 31.7228 73.4144 31.6749 73.4466 31.6271C73.5164 31.5227 73.5839 31.4144 73.6483 31.303C73.7346 31.1539 73.8162 30.9986 73.8923 30.8369C73.9096 30.8008 73.926 30.764 73.9425 30.7271C73.9653 30.6776 73.9872 30.6274 74.0084 30.5764C74.079 30.4085 74.1442 30.2351 74.2038 30.057C74.2211 30.006 74.2375 29.9542 74.2532 29.9024C74.2885 29.7879 74.3207 29.6717 74.3513 29.554C74.3921 29.3916 74.429 29.2253 74.4604 29.0558C74.4674 29.0166 74.4745 28.9773 74.4808 28.9381C74.4894 28.8847 74.4988 28.8314 74.5059 28.778C74.5177 28.6996 74.5286 28.6211 74.5373 28.5426C74.5435 28.4885 74.549 28.4344 74.5545 28.381C74.5663 28.2578 74.5749 28.1362 74.5804 28.0154C74.5891 27.8396 74.5906 27.6654 74.5859 27.4936C74.5851 27.4528 74.5843 27.4112 74.582 27.3704C74.5796 27.3139 74.5765 27.2582 74.5734 27.2025C74.5679 27.1193 74.5608 27.0369 74.553 26.9545C74.5467 26.8972 74.5412 26.8408 74.5333 26.7843C74.5177 26.6532 74.4973 26.5253 74.4737 26.3982C74.4392 26.2091 74.396 26.0239 74.345 25.845C74.3325 25.8011 74.3199 25.7572 74.3066 25.714C74.2885 25.6536 74.2689 25.5932 74.2485 25.5343C74.2171 25.4441 74.185 25.3554 74.1497 25.2683C74.1245 25.2056 74.0987 25.1444 74.072 25.0839C74.0069 24.9372 73.9355 24.7968 73.8593 24.6618C73.7307 24.435 73.5863 24.2255 73.4294 24.0364C73.3846 23.9839 73.3391 23.9321 73.2928 23.8827C73.2206 23.8058 73.1453 23.7328 73.0684 23.6637C72.713 23.3491 72.305 23.1263 71.8554 23.0203L70.6831 22.7441L68.7607 33.1344Z" fill="#FF9C39"/>
<path d="M72.4624 29.1089L74.3526 29.5546C74.3934 29.3921 74.4303 29.2258 74.4617 29.0563L72.555 28.6075L72.4624 29.1089ZM72.0285 29.5444L74.2043 30.0567C74.2215 30.0057 74.238 29.9539 74.2537 29.9022L72.0575 29.3851L72.0285 29.5444ZM71.1293 31.247L73.349 31.7704C73.382 31.7233 73.4149 31.6755 73.4471 31.6276L71.1583 31.0885L71.1293 31.247ZM71.3388 30.1132L73.9438 30.7268C73.9665 30.6774 73.9885 30.6272 74.0097 30.5762L71.3678 29.9539L71.3388 30.1132ZM70.2285 32.9505L71.5679 33.2659C71.6487 33.233 71.7287 33.1961 71.8072 33.1561L70.2575 32.7912L70.2285 32.9505ZM70.4388 31.8159L72.8398 32.3816C72.883 32.3377 72.9261 32.2922 72.9677 32.2459L70.4678 31.6566L70.4388 31.8159ZM72.8351 27.6039L74.5817 28.0151C74.5903 27.8393 74.5919 27.6652 74.5872 27.4933L72.9277 27.1026L72.8351 27.6039ZM72.471 28.0567L74.5385 28.5439C74.5448 28.4898 74.5503 28.4357 74.5558 28.3823L72.5008 27.8982L72.471 28.0567ZM72.6891 25.9774L74.475 26.398C74.4405 26.2089 74.3973 26.0237 74.3463 25.8448L72.7817 25.476L72.6891 25.9774ZM72.2733 26.4176L74.5542 26.9551C74.548 26.8978 74.5425 26.8413 74.5346 26.7848L72.3023 26.2591L72.2733 26.4176ZM72.4828 25.2838L74.3079 25.7137C74.2898 25.6533 74.2702 25.5929 74.2498 25.5341L72.5118 25.1245L72.4828 25.2838ZM71.7413 24.1625L73.8614 24.6623C73.7327 24.4356 73.5883 24.2261 73.4314 24.037L71.8347 23.6611L71.7413 24.1625ZM71.5028 23.461L73.2941 23.8832C73.2219 23.8063 73.1466 23.7333 73.0697 23.6643L71.5326 23.3018L71.5028 23.461Z" fill="#FCB57A"/>
<path d="M73.3447 28.4488C73.7482 25.5557 72.4542 22.9842 70.4546 22.7054C68.455 22.4266 66.5069 24.546 66.1035 27.4391C65.7001 30.3323 66.9941 32.9038 68.9937 33.1826C70.9933 33.4614 72.9413 31.342 73.3447 28.4488Z" fill="#FCB57A"/>
<path d="M72.4191 28.3196C72.7194 26.1663 71.7561 24.2525 70.2677 24.0449C68.7793 23.8374 67.3292 25.4147 67.029 27.568C66.7287 29.7212 67.692 31.635 69.1804 31.8426C70.6689 32.0501 72.1189 30.4728 72.4191 28.3196Z" fill="#FF9C39"/>
<path d="M68.3447 27.5417C68.6091 27.4318 68.9465 27.4114 69.3553 27.4805C69.3702 27.482 69.3906 27.4868 69.4165 27.4922L69.5483 26.7814C69.469 26.7657 69.3435 26.7531 69.1717 26.7437C69.0092 26.7359 68.8837 26.7217 68.7958 26.7013C68.6915 26.677 68.6075 26.6244 68.544 26.5452C68.4804 26.4659 68.4569 26.382 68.4733 26.2941C68.4929 26.1858 68.6616 26.1262 68.9794 26.1136C69.2274 26.1026 69.4565 26.1168 69.6652 26.1544L69.7217 25.8484C69.7554 25.668 69.8676 25.6005 70.0599 25.6452C70.2615 25.6923 70.3447 25.8068 70.3117 25.9873L70.2411 26.3694C70.5668 26.5413 70.828 26.75 71.0273 26.9971C71.251 27.2741 71.3396 27.5393 71.2925 27.7943C71.251 28.018 71.0713 28.1584 70.7535 28.2157C70.5103 28.2596 70.227 28.2526 69.9037 28.1945L69.7146 29.2161C69.7845 29.2404 69.8441 29.2585 69.8935 29.2702C69.9469 29.2828 70.0669 29.2875 70.2545 29.2844C70.442 29.2812 70.5738 29.2883 70.6484 29.3055C70.9371 29.3738 71.0619 29.5182 71.0211 29.7387C70.9999 29.8548 70.89 29.9278 70.6915 29.9584C70.471 29.9937 70.1768 29.9678 69.8096 29.8807C69.7421 29.865 69.6723 29.847 69.6016 29.8266L69.5067 30.3381C69.4957 30.397 69.4659 30.4456 69.4165 30.4841C69.3545 30.5304 69.2776 30.5429 69.1858 30.5217C68.9755 30.4723 68.8853 30.3648 68.9159 30.1993L69.0234 29.6202C68.6303 29.4538 68.3274 29.2632 68.1155 29.0482C67.8566 28.7877 67.7538 28.5107 67.808 28.2188C67.8676 27.8908 68.0465 27.6649 68.3447 27.5417ZM70.0104 27.6076C70.3165 27.646 70.4804 27.6037 70.5032 27.482C70.5291 27.34 70.4012 27.1854 70.1195 27.0191L70.0104 27.6076ZM69.3082 28.0752C68.901 28.0164 68.6734 28.1184 68.6248 28.3805C68.5926 28.5546 68.766 28.7477 69.145 28.9595L69.3082 28.0752Z" fill="#F28C2F"/>
<path d="M68.2615 27.5227C68.4977 27.4058 68.7958 27.376 69.1552 27.4333C69.1685 27.4349 69.1858 27.438 69.2086 27.4435L69.3404 26.7326C69.2706 26.7193 69.1599 26.7106 69.0085 26.7051C68.8649 26.702 68.755 26.691 68.6774 26.673C68.5856 26.6518 68.5126 26.6024 68.4584 26.5247C68.4043 26.4478 68.3847 26.3646 68.4012 26.2767C68.4208 26.1684 68.5714 26.1041 68.8516 26.0829C69.0713 26.0657 69.2721 26.0727 69.4557 26.1041L69.5122 25.7981C69.546 25.6176 69.6464 25.547 69.8151 25.587C69.9916 25.6286 70.063 25.74 70.0301 25.9205L69.9595 26.3026C70.2427 26.4643 70.4695 26.6651 70.6398 26.9052C70.8312 27.1744 70.9034 27.4364 70.8563 27.6907C70.8147 27.9143 70.6531 28.0594 70.3714 28.1253C70.1556 28.1763 69.9061 28.1771 69.6221 28.1277L69.433 29.1493C69.4942 29.1721 69.5467 29.1877 69.5899 29.1979C69.6362 29.2089 69.7429 29.2105 69.9085 29.2019C70.074 29.1932 70.1902 29.1972 70.2561 29.2121C70.5095 29.2717 70.6162 29.4122 70.5754 29.6326C70.5542 29.7488 70.4554 29.8241 70.2796 29.8602C70.0842 29.901 69.8253 29.8837 69.5028 29.8076C69.4432 29.7935 69.3828 29.7778 69.3208 29.7598L69.2258 30.2713C69.2148 30.3302 69.1874 30.3788 69.1434 30.4188C69.0877 30.4667 69.0195 30.4816 68.9394 30.4628C68.755 30.4196 68.6781 30.3153 68.708 30.1497L68.8155 29.5707C68.4718 29.4153 68.2089 29.234 68.0261 29.0269C67.8033 28.7742 67.7185 28.5028 67.7727 28.2109C67.8331 27.8837 67.9963 27.6538 68.2615 27.5227ZM69.7304 27.5424C69.9995 27.5722 70.1454 27.5259 70.1682 27.4035C70.1949 27.2615 70.085 27.1116 69.8394 26.9539L69.7304 27.5424ZM69.1003 28.0273C68.7417 27.9802 68.5385 28.0877 68.4898 28.3498C68.4577 28.5239 68.6067 28.7115 68.9363 28.9116L69.1003 28.0273Z" fill="#FCB57A"/>
<path d="M74.1675 97.873L73.7822 100.411L77.7407 102.105L82.8072 99.5953L74.1675 97.873Z" fill="#E29086"/>
<path d="M74.168 97.8728L77.9382 100.833L82.8077 99.5951L79.6534 96.7021L74.168 97.8728Z" fill="#F2A89B"/>
<path d="M72.407 94.54L67.7109 97.6135L71.1571 98.0733L72.407 94.54Z" fill="#F2A89B"/>
<path d="M67.7109 97.6133L68.6776 99.9805L71.1571 98.0731L67.7109 97.6133Z" fill="#E29086"/>
<path d="M91.939 99.8586L89.4744 99.4004L85.9043 100.975L87.6148 103.53L91.939 99.8586Z" fill="#E29086"/>
<path d="M91.9391 99.8574L87.0469 101.359L87.615 103.529L92.8054 103.036L91.9391 99.8574Z" fill="#F2A89B"/>
<path d="M78.7835 90.0107L76.902 90.3575L76.6729 93.4906C76.9255 93.3957 77.8059 93.0308 78.3685 92.0579C78.8887 91.1595 78.8181 90.2916 78.7835 90.0107Z" fill="#F2A89B"/>
<path d="M76.9031 90.3574L75.9238 90.6007L76.6732 93.4905L76.9031 90.3574Z" fill="#E29086"/>
<path d="M18.663 47.2731C17.2099 40.912 11.8107 35.312 8.08684 37.2195C4.36294 39.1262 5.26998 45.0188 8.41325 51.2394C9.55334 53.4945 19.694 51.784 18.663 47.2731ZM43.7535 90.9415C44.9446 94.3029 45.0003 100.367 44.9501 103.259C44.9367 104.043 45.7065 104.601 46.4472 104.344L56.7228 100.789C57.1528 100.64 57.451 100.248 57.48 99.7938C57.7319 95.9342 56.7024 88.0375 56.7024 88.0375L43.7535 90.9415Z" fill="#F2A89B"/>
<path d="M48.5093 29.208C48.5093 29.208 11.9262 34.5906 6.9594 55.2526C1.99262 75.9146 14.8113 91.1492 27.4746 94.1386C40.1387 97.1273 59.1875 93.1963 71.5408 86.3479L69.6357 81.05L71.6327 79.1622L69.7762 78.1492L72.0163 75.7035L67.9613 70.1835L71.5016 63.9896L65.8891 57.7658L65.4254 45.8189L59.6433 44.3218L57.4879 35.6719L51.3018 36.0407L48.5093 29.208Z" fill="#F2A89B"/>
<path d="M19.459 55.4814L25.5823 58.5957" stroke="#D37972" stroke-width="0.941569" stroke-miterlimit="10" stroke-linecap="round" stroke-linejoin="round"/>
<path d="M24.1469 54.6943L20.8027 59.5489" stroke="#D37972" stroke-width="0.941569" stroke-miterlimit="10" stroke-linecap="round" stroke-linejoin="round"/>
<path d="M6.15918 59.6094L10.2221 62.2764" stroke="#D37972" stroke-width="0.941569" stroke-miterlimit="10" stroke-linecap="round" stroke-linejoin="round"/>
<path d="M8.78609 58.376L5.90332 62.5605" stroke="#D37972" stroke-width="0.941569" stroke-miterlimit="10" stroke-linecap="round" stroke-linejoin="round"/>
<path d="M48.5098 29.208C48.5098 29.208 11.9267 34.5906 6.95996 55.2526M27.476 94.1386C40.1401 97.1273 59.1888 93.1963 71.5422 86.3479" stroke="#D37972" stroke-width="0.392321" stroke-miterlimit="10" stroke-linecap="round" stroke-linejoin="round"/>
<path d="M50.6377 34.4144L56.3005 34.1445L57.4892 35.673L51.3031 36.0418L50.6377 34.4144Z" fill="#E29086"/>
<path d="M59.3857 43.2871L63.9892 43.4331L65.4251 45.8207L59.6439 44.3228L59.3857 43.2871Z" fill="#E29086"/>
<path d="M65.8555 56.8828L70.7971 61.5444L71.5017 63.9901L65.89 57.7663L65.8555 56.8828Z" fill="#E29086"/>
<path d="M72.016 75.7035L71.8018 74.1884L68.2458 69.6846L67.9609 70.1844L72.016 75.7035Z" fill="#E29086"/>
<path d="M71.6328 79.1619L71.2515 77.9802L70.2832 77.5957L69.7764 78.1489L71.6328 79.1619Z" fill="#E29086"/>
<path d="M71.541 86.348L72.0283 85.4763L69.9051 80.7959L69.6367 81.0501L71.541 86.348Z" fill="#E29086"/>
<path d="M19.1377 86.6648L14.4667 88.5134L13.6476 85.5341L8.77339 67.82L8.24219 65.889L11.7872 64.4853L12.9132 64.0397C17.1887 62.8635 22.0479 66.975 23.7663 73.2223C25.4847 79.4712 23.4132 85.4894 19.1377 86.6648Z" fill="#F2A89B"/>
<path d="M14.4707 88.5115C18.7459 87.3352 20.818 81.3169 19.099 75.0693C17.38 68.8216 12.5208 64.7105 8.24567 65.8868C3.97055 67.063 1.89842 73.0813 3.61743 79.329C5.33643 85.5766 10.1956 89.6877 14.4707 88.5115Z" fill="#F2A89B"/>
<path d="M8.24121 65.889L11.7862 64.4853L12.9122 64.0397C17.1877 62.8635 22.047 66.975 23.7653 73.2223C25.4845 79.4704 23.413 85.4886 19.1367 86.664" stroke="#D37972" stroke-width="0.392321" stroke-miterlimit="10" stroke-linecap="round" stroke-linejoin="round"/>
<path d="M3.6134 79.3317C1.89425 73.0836 3.96649 67.0654 8.242 65.8893C12.5175 64.7131 17.376 68.8246 19.0952 75.0719C20.8143 81.32 18.7421 87.3382 14.4666 88.5144" stroke="#D37972" stroke-width="0.392321" stroke-miterlimit="10" stroke-linecap="round" stroke-linejoin="round"/>
<path d="M14.054 86.997C17.7567 85.9782 19.5514 80.7657 18.0625 75.3545C16.5737 69.9434 12.3651 66.3826 8.66235 67.4014C4.95965 68.4202 3.16497 73.6327 4.65382 79.0439C6.14268 84.455 10.3513 88.0158 14.054 86.997Z" fill="#F4B8B0"/>
<path d="M13.3654 79.2713C14.1149 79.0983 14.4499 77.7778 14.1138 76.3219C13.7776 74.866 12.8975 73.8261 12.148 73.9992C11.3986 74.1722 11.0635 75.4927 11.3997 76.9486C11.7359 78.4044 12.6159 79.4444 13.3654 79.2713Z" fill="#E29086"/>
<path d="M8.2492 80.452C8.99867 80.2789 9.33372 78.9584 8.99755 77.5026C8.66138 76.0467 7.7813 75.0068 7.03184 75.1798C6.28237 75.3529 5.94732 76.6734 6.28349 78.1292C6.61966 79.5851 7.49974 80.625 8.2492 80.452Z" fill="#E29086"/>
<path d="M36.2167 40.5348C34.7636 34.1737 29.3645 28.5737 25.6406 30.4812C21.9166 32.3887 22.8237 38.2805 25.967 44.5012C27.107 46.7562 37.2477 45.0457 36.2167 40.5348Z" fill="#F2A89B"/>
<path d="M34.8944 40.0608C33.7355 34.9873 29.4286 30.5203 26.4588 32.041C23.4889 33.5616 24.2116 38.2616 26.7193 43.2237C27.6279 45.0237 35.7168 43.6592 34.8944 40.0608Z" fill="#F4B8B0"/>
<path d="M36.2167 40.5348C34.7636 34.1737 29.3645 28.5737 25.6406 30.4812C21.9166 32.3887 22.8237 38.2805 25.967 44.5012" stroke="#D37972" stroke-width="0.392321" stroke-miterlimit="10" stroke-linecap="round" stroke-linejoin="round"/>
<path d="M31.5346 41.1949C31.1384 38.7091 29.4169 36.5773 28.1489 37.38C26.8809 38.1826 27.1022 40.4911 28.0642 42.8991C28.4126 43.7716 31.8155 42.958 31.5346 41.1949Z" fill="#E29086"/>
<path d="M50.7461 88.5895C51.9372 91.9509 51.9929 98.0146 51.9427 100.907C51.9293 101.691 52.6991 102.249 53.4398 101.992L63.7154 98.4367C64.1454 98.2877 64.4436 97.8961 64.4726 97.4418C64.7245 93.5822 63.695 85.6855 63.695 85.6855L50.7461 88.5895Z" fill="#F2A89B"/>
<path d="M50.7461 88.5898C51.9372 91.9512 51.9929 98.015 51.9427 100.907C51.9293 101.691 52.6991 102.249 53.4398 101.992L63.7154 98.4371" stroke="#D37972" stroke-width="0.392321" stroke-miterlimit="10" stroke-linecap="round" stroke-linejoin="round"/>
</g>
<defs>
<clipPath id="clip0_128_1948">
<rect width="141" height="104.436" fill="white" transform="translate(0.5)"/>
</clipPath>
</defs>
</svg>
