<svg width="31" height="50" viewBox="0 0 31 50" fill="none" xmlns="http://www.w3.org/2000/svg">
<path d="M26.9974 38.1832C26.9696 38.2389 26.9418 38.2667 26.9139 38.3224C26.8304 38.3502 26.8026 38.378 26.8305 38.4615C26.0233 39.5192 25.2718 40.6046 24.3534 41.5788C23.4071 42.5807 22.4329 43.5827 21.3753 44.5012C21.264 44.5847 21.1526 44.6682 21.0691 44.7517C19.8445 45.8371 18.5364 46.8113 17.1726 47.7019C16.0871 48.4255 15.0295 49.1213 13.944 49.845C13.7214 49.9841 13.5266 50.0676 13.2761 49.9285C11.2165 48.8708 9.15687 47.841 7.09727 46.8112C7.0416 46.7834 7.01377 46.7278 6.9581 46.6999C5.31599 45.9763 3.72954 45.0856 2.11526 44.3063C1.44728 43.9723 0.751475 43.6105 0 43.2209C0.80714 42.9147 1.50295 42.6642 2.22659 42.4137C5.0655 41.3561 7.84874 40.1871 10.5763 38.9068C10.6876 38.8512 10.799 38.8233 10.8825 38.7955C12.4133 38.0162 13.9162 37.2647 15.447 36.4854C17.6458 35.3443 19.7053 34.0362 21.7649 32.6724C23.0452 31.6982 24.3534 30.7519 25.5223 29.6108C27.3871 27.8017 29.0292 25.8534 29.6137 23.1815C31.3115 26.6884 30.5878 33.2847 26.9974 38.1832Z" fill="#4500A0"/>
<path d="M28.3612 21.9012C28.5004 22.6805 28.2221 23.4042 27.9438 24.1C27.248 25.8812 25.9955 27.245 24.576 28.4697C24.4647 28.5532 24.3534 28.6645 24.3534 28.414C24.2977 27.2172 23.9637 26.1039 23.5184 24.9906C22.8504 23.7382 22.0155 22.597 21.0135 21.5672C19.0652 19.8138 16.8665 18.45 14.278 17.4202C14.946 17.0584 15.5027 16.7522 16.0593 16.4182C18.2581 15.1658 20.5125 14.0246 22.8226 12.967C23.0453 12.8557 23.2122 12.7722 23.4349 12.967C24.91 14.1916 26.246 15.4998 27.1923 17.1975C27.9438 18.3943 28.3612 19.6746 28.4726 21.0662C28.5282 21.3724 28.3612 21.6229 28.3612 21.9012Z" fill="#4500A0"/>
<path d="M30.894 6.81605C29.4189 7.3727 28.0273 7.90152 26.6356 8.43033C24.409 9.29314 22.2103 10.2951 20.0115 11.2414C18.3694 12.0764 16.7273 12.9114 15.113 13.7463C13.7771 14.4421 12.4968 15.1936 11.2443 16.0008C10.6598 16.3626 10.0753 16.7244 9.49087 17.114C9.49087 17.0584 9.46304 17.0027 9.46304 16.9471C9.43521 16.9471 9.4352 16.9749 9.40737 16.9749C9.4352 17.0306 9.46304 17.0584 9.49087 17.114C9.37954 17.1975 9.26821 17.281 9.12905 17.3645C7.98792 18.2273 6.81896 19.118 5.73349 20.0643C3.72956 21.8177 1.92045 24.1 1.25248 26.7719C-0.807124 24.2948 0.667992 15.8338 3.92438 11.6589C4.00788 11.6589 4.03572 11.6032 4.03572 11.5197C4.7037 10.4621 5.483 9.48796 6.3458 8.56949C7.43127 7.40053 8.54457 6.23157 9.82486 5.25744C10.9382 4.25547 12.1349 3.337 13.3874 2.50203C14.5842 1.69489 15.7253 0.859916 16.9778 0.136273C17.2005 -0.00288893 17.3953 -0.0585529 17.6736 0.0806092C19.6775 1.11041 21.7093 2.14021 23.7411 3.14217C23.8246 3.17001 23.8802 3.2535 23.9637 3.30917C25.6337 4.03281 27.1923 4.92345 28.8344 5.73059C29.4746 6.09241 30.1425 6.45423 30.894 6.81605Z" fill="#4500A0"/>
<path d="M16.3376 32.728C13.6379 34.2588 10.9103 35.7339 8.07141 37.0142C7.87658 37.0977 7.68175 37.2369 7.43126 37.042C6.15097 35.9844 4.95417 34.8433 4.06354 33.4238C4.06354 33.3125 4.09137 33.2012 3.92437 33.229L3.89654 33.2012C4.00787 33.0342 3.92438 32.9507 3.72955 32.9229C2.72758 31.3364 2.19876 29.6386 2.44925 27.746C2.53275 26.5771 2.95024 25.4916 3.56255 24.5175C4.23053 23.432 5.09333 22.5135 6.06747 21.6786C6.2623 21.5116 6.23447 21.5116 6.45713 21.5672C6.42929 22.6527 6.81895 23.6547 7.15294 24.6566C7.59826 25.5194 8.07141 26.4101 8.68372 27.1615C9.21254 27.8295 9.85268 28.3862 10.4372 28.9985C11.8566 30.084 13.3317 31.1138 14.9738 31.8652C15.447 32.0879 15.948 32.3105 16.3933 32.5332C16.4768 32.6445 16.3933 32.6724 16.3376 32.728Z" fill="#4500A0"/>
<path d="M3.75738 32.9229C3.92437 32.9507 4.00787 33.0064 3.92437 33.2012C3.78521 33.1455 3.75738 33.0342 3.75738 32.9229Z" fill="#4500A0"/>
<path d="M3.92437 33.2012C4.09136 33.1734 4.06353 33.2847 4.06353 33.396C4.00786 33.3403 3.98003 33.2847 3.92437 33.2012Z" fill="#4500A0"/>
<path d="M4.06352 11.5754C4.06352 11.6589 4.03569 11.6867 3.95219 11.7146C3.98002 11.6589 4.03569 11.6032 4.06352 11.5754Z" fill="#4500A0"/>
<path d="M9.49087 17.1419C9.46304 17.0862 9.4352 17.0584 9.40737 17.0027C9.4352 17.0027 9.43521 16.9749 9.46304 16.9749C9.46304 17.0306 9.49087 17.0862 9.49087 17.1419Z" fill="#4500A0"/>
</svg>
